{
 "cells": [
  {
   "cell_type": "code",
   "execution_count": 25,
   "id": "597cf821",
   "metadata": {},
   "outputs": [],
   "source": [
    "import subprocess"
   ]
  },
  {
   "cell_type": "code",
   "execution_count": 26,
   "id": "f747a0f6",
   "metadata": {},
   "outputs": [],
   "source": [
    "import subprocess\n",
    "\n",
    "def cut_video(input_path, output_path, start_time, end_time):\n",
    "    cmd = [\n",
    "        'ffmpeg',\n",
    "        '-ss', str(start_time),\n",
    "        '-to', str(end_time),\n",
    "        '-i', input_path,\n",
    "        '-c:v', 'libx264',\n",
    "        '-c:a', 'aac',\n",
    "        '-preset', 'fast',    \n",
    "        output_path\n",
    "    ]\n",
    "\n",
    "    subprocess.run(cmd)\n",
    "\n",
    "def scale_video(path, output, width=900, height=1600):\n",
    "    subprocess.run([\"ffmpeg\", \"-i\", path, \"-vf\",\n",
    "                    f\"scale={width}:{height}\", output])\n",
    "\n",
    "def add_border_ffmpeg(input_path, output_path, border_hd=0, border_lr=0, border_color=\"black\"):\n",
    "    \"\"\"\n",
    "    Add border using FFmpeg (faster for large videos)\n",
    "    :param border_color: Can be color name or hex code (#RRGGBB)\n",
    "    :param border_hd: size of border under and upper of original video (total height increased on border_hd*2)\n",
    "    :param border_lr: size of left and right border (total width increased on border_lr*2l)\n",
    "    \"\"\"\n",
    "    cmd = [\n",
    "        'ffmpeg',\n",
    "        '-i', input_path,\n",
    "        '-vf', f'pad=width=iw+{border_lr*2}:height=ih+{border_hd*2}:x={border_lr}:y={border_hd}:color={border_color}',\n",
    "        '-c:a', 'copy',\n",
    "        output_path\n",
    "    ]\n",
    "\n",
    "    subprocess.run(cmd)\n",
    "\n",
    "def blur_video(input_path, output_path):\n",
    "    cmd = [\n",
    "        'ffmpeg',\n",
    "        '-i', input_path,\n",
    "        '-vf', 'boxblur=10:5',\n",
    "        '-c:a', 'copy',\n",
    "        output_path\n",
    "    ]\n",
    "    subprocess.run(cmd)\n",
    "\n",
    "def compose_center(background_path, overlay_path, output_path):\n",
    "    cmd = [\n",
    "        'ffmpeg',\n",
    "        '-i', background_path,\n",
    "        '-i', overlay_path,\n",
    "        '-filter_complex',\n",
    "        '[0:v][1:v]overlay=(W-w)/2:(H-h)/2',\n",
    "        '-c:a', 'copy',\n",
    "        output_path\n",
    "    ]\n",
    "    subprocess.run(cmd)\n"
   ]
  },
  {
   "cell_type": "code",
   "execution_count": 27,
   "id": "8844f136",
   "metadata": {},
   "outputs": [],
   "source": [
    "# blur_video(\"input.mp4\", \"output.mp4\")\n",
    "# scale_video(\"blur.mp4\", \"background.mp4\", width=1920, height=1080*3)\n",
    "# compose_center(\"background.mp4\", \"input.mp4\", \"output.mp4\")\n",
    "# cut_with_reencode(\"input.mp4\", \"cutted.mp4\", 5, 10)"
   ]
  },
  {
   "cell_type": "code",
   "execution_count": 28,
   "id": "0b9e0b28",
   "metadata": {},
   "outputs": [],
   "source": [
    "# clip = VideoFileClip(\"output.mp4\")\n",
    "# clip.size"
   ]
  },
  {
   "cell_type": "code",
   "execution_count": 30,
   "id": "5d608084",
   "metadata": {},
   "outputs": [],
   "source": [
    "# model = Model(\"../models/vosk-model-ru-0.22\")"
   ]
  },
  {
   "cell_type": "code",
   "execution_count": 32,
   "id": "20ac9d2c",
   "metadata": {},
   "outputs": [
    {
     "name": "stdout",
     "output_type": "stream",
     "text": [
      "Загружаем модель Whisper (small) на cuda...\n"
     ]
    },
    {
     "name": "stderr",
     "output_type": "stream",
     "text": [
      "ffmpeg version 4.4.2-0ubuntu0.22.04.1 Copyright (c) 2000-2021 the FFmpeg developers\n",
      "  built with gcc 11 (Ubuntu 11.2.0-19ubuntu1)\n",
      "  configuration: --prefix=/usr --extra-version=0ubuntu0.22.04.1 --toolchain=hardened --libdir=/usr/lib/x86_64-linux-gnu --incdir=/usr/include/x86_64-linux-gnu --arch=amd64 --enable-gpl --disable-stripping --enable-gnutls --enable-ladspa --enable-libaom --enable-libass --enable-libbluray --enable-libbs2b --enable-libcaca --enable-libcdio --enable-libcodec2 --enable-libdav1d --enable-libflite --enable-libfontconfig --enable-libfreetype --enable-libfribidi --enable-libgme --enable-libgsm --enable-libjack --enable-libmp3lame --enable-libmysofa --enable-libopenjpeg --enable-libopenmpt --enable-libopus --enable-libpulse --enable-librabbitmq --enable-librubberband --enable-libshine --enable-libsnappy --enable-libsoxr --enable-libspeex --enable-libsrt --enable-libssh --enable-libtheora --enable-libtwolame --enable-libvidstab --enable-libvorbis --enable-libvpx --enable-libwebp --enable-libx265 --enable-libxml2 --enable-libxvid --enable-libzimg --enable-libzmq --enable-libzvbi --enable-lv2 --enable-omx --enable-openal --enable-opencl --enable-opengl --enable-sdl2 --enable-pocketsphinx --enable-librsvg --enable-libmfx --enable-libdc1394 --enable-libdrm --enable-libiec61883 --enable-chromaprint --enable-frei0r --enable-libx264 --enable-shared\n",
      "  WARNING: library configuration mismatch\n",
      "  avcodec     configuration: --prefix=/usr --extra-version=0ubuntu0.22.04.1 --toolchain=hardened --libdir=/usr/lib/x86_64-linux-gnu --incdir=/usr/include/x86_64-linux-gnu --arch=amd64 --enable-gpl --disable-stripping --enable-gnutls --enable-ladspa --enable-libaom --enable-libass --enable-libbluray --enable-libbs2b --enable-libcaca --enable-libcdio --enable-libcodec2 --enable-libdav1d --enable-libflite --enable-libfontconfig --enable-libfreetype --enable-libfribidi --enable-libgme --enable-libgsm --enable-libjack --enable-libmp3lame --enable-libmysofa --enable-libopenjpeg --enable-libopenmpt --enable-libopus --enable-libpulse --enable-librabbitmq --enable-librubberband --enable-libshine --enable-libsnappy --enable-libsoxr --enable-libspeex --enable-libsrt --enable-libssh --enable-libtheora --enable-libtwolame --enable-libvidstab --enable-libvorbis --enable-libvpx --enable-libwebp --enable-libx265 --enable-libxml2 --enable-libxvid --enable-libzimg --enable-libzmq --enable-libzvbi --enable-lv2 --enable-omx --enable-openal --enable-opencl --enable-opengl --enable-sdl2 --enable-pocketsphinx --enable-librsvg --enable-libmfx --enable-libdc1394 --enable-libdrm --enable-libiec61883 --enable-chromaprint --enable-frei0r --enable-libx264 --enable-shared --enable-version3 --disable-doc --disable-programs --enable-libaribb24 --enable-libopencore_amrnb --enable-libopencore_amrwb --enable-libtesseract --enable-libvo_amrwbenc --enable-libsmbclient\n",
      "  libavutil      56. 70.100 / 56. 70.100\n",
      "  libavcodec     58.134.100 / 58.134.100\n",
      "  libavformat    58. 76.100 / 58. 76.100\n",
      "  libavdevice    58. 13.100 / 58. 13.100\n",
      "  libavfilter     7.110.100 /  7.110.100\n",
      "  libswscale      5.  9.100 /  5.  9.100\n",
      "  libswresample   3.  9.100 /  3.  9.100\n",
      "  libpostproc    55.  9.100 / 55.  9.100\n",
      "Input #0, mov,mp4,m4a,3gp,3g2,mj2, from '../data/input1.mp4':\n",
      "  Metadata:\n",
      "    major_brand     : mp42\n",
      "    minor_version   : 1\n",
      "    compatible_brands: isommp41mp42\n",
      "    creation_time   : 2025-04-08T22:14:30.000000Z\n",
      "  Duration: 00:10:05.14, start: 0.000000, bitrate: 4053 kb/s\n",
      "  Stream #0:0(und): Audio: aac (LC) (mp4a / 0x6134706D), 48000 Hz, stereo, fltp, 250 kb/s (default)\n",
      "    Metadata:\n",
      "      creation_time   : 2025-04-08T22:14:30.000000Z\n",
      "      handler_name    : Core Media Audio\n",
      "      vendor_id       : [0][0][0][0]\n",
      "  Stream #0:1(und): Video: h264 (High) (avc1 / 0x31637661), yuv420p, 1920x1080 [SAR 1:1 DAR 16:9], 3798 kb/s, 25 fps, 25 tbr, 25k tbn, 50 tbc (default)\n",
      "    Metadata:\n",
      "      creation_time   : 2025-04-08T22:14:30.000000Z\n",
      "      handler_name    : Core Media Video\n",
      "      vendor_id       : [0][0][0][0]\n",
      "Stream mapping:\n",
      "  Stream #0:0 -> #0:0 (aac (native) -> pcm_s16le (native))\n",
      "Press [q] to stop, [?] for help\n",
      "Output #0, wav, to 'video_chunks/temp_audio.wav':\n",
      "  Metadata:\n",
      "    major_brand     : mp42\n",
      "    minor_version   : 1\n",
      "    compatible_brands: isommp41mp42\n",
      "    ISFT            : Lavf58.76.100\n",
      "  Stream #0:0(und): Audio: pcm_s16le ([1][0][0][0] / 0x0001), 16000 Hz, mono, s16, 256 kb/s (default)\n",
      "    Metadata:\n",
      "      creation_time   : 2025-04-08T22:14:30.000000Z\n",
      "      handler_name    : Core Media Audio\n",
      "      vendor_id       : [0][0][0][0]\n",
      "      encoder         : Lavc58.134.100 pcm_s16le\n",
      "size=   18911kB time=00:10:05.13 bitrate= 256.0kbits/s speed= 970x    \n",
      "video:0kB audio:18911kB subtitle:0kB other streams:0kB global headers:0kB muxing overhead: 0.000403%\n"
     ]
    },
    {
     "name": "stdout",
     "output_type": "stream",
     "text": [
      "Разделение аудио на фрагменты...\n"
     ]
    },
    {
     "name": "stderr",
     "output_type": "stream",
     "text": [
      "Объединение фрагментов: 100%|██████████| 87/87 [00:00<00:00, 8958.89it/s]\n",
      "ffmpeg version 4.4.2-0ubuntu0.22.04.1 Copyright (c) 2000-2021 the FFmpeg developers\n",
      "  built with gcc 11 (Ubuntu 11.2.0-19ubuntu1)\n",
      "  configuration: --prefix=/usr --extra-version=0ubuntu0.22.04.1 --toolchain=hardened --libdir=/usr/lib/x86_64-linux-gnu --incdir=/usr/include/x86_64-linux-gnu --arch=amd64 --enable-gpl --disable-stripping --enable-gnutls --enable-ladspa --enable-libaom --enable-libass --enable-libbluray --enable-libbs2b --enable-libcaca --enable-libcdio --enable-libcodec2 --enable-libdav1d --enable-libflite --enable-libfontconfig --enable-libfreetype --enable-libfribidi --enable-libgme --enable-libgsm --enable-libjack --enable-libmp3lame --enable-libmysofa --enable-libopenjpeg --enable-libopenmpt --enable-libopus --enable-libpulse --enable-librabbitmq --enable-librubberband --enable-libshine --enable-libsnappy --enable-libsoxr --enable-libspeex --enable-libsrt --enable-libssh --enable-libtheora --enable-libtwolame --enable-libvidstab --enable-libvorbis --enable-libvpx --enable-libwebp --enable-libx265 --enable-libxml2 --enable-libxvid --enable-libzimg --enable-libzmq --enable-libzvbi --enable-lv2 --enable-omx --enable-openal --enable-opencl --enable-opengl --enable-sdl2 --enable-pocketsphinx --enable-librsvg --enable-libmfx --enable-libdc1394 --enable-libdrm --enable-libiec61883 --enable-chromaprint --enable-frei0r --enable-libx264 --enable-shared\n",
      "  WARNING: library configuration mismatch\n",
      "  avcodec     configuration: --prefix=/usr --extra-version=0ubuntu0.22.04.1 --toolchain=hardened --libdir=/usr/lib/x86_64-linux-gnu --incdir=/usr/include/x86_64-linux-gnu --arch=amd64 --enable-gpl --disable-stripping --enable-gnutls --enable-ladspa --enable-libaom --enable-libass --enable-libbluray --enable-libbs2b --enable-libcaca --enable-libcdio --enable-libcodec2 --enable-libdav1d --enable-libflite --enable-libfontconfig --enable-libfreetype --enable-libfribidi --enable-libgme --enable-libgsm --enable-libjack --enable-libmp3lame --enable-libmysofa --enable-libopenjpeg --enable-libopenmpt --enable-libopus --enable-libpulse --enable-librabbitmq --enable-librubberband --enable-libshine --enable-libsnappy --enable-libsoxr --enable-libspeex --enable-libsrt --enable-libssh --enable-libtheora --enable-libtwolame --enable-libvidstab --enable-libvorbis --enable-libvpx --enable-libwebp --enable-libx265 --enable-libxml2 --enable-libxvid --enable-libzimg --enable-libzmq --enable-libzvbi --enable-lv2 --enable-omx --enable-openal --enable-opencl --enable-opengl --enable-sdl2 --enable-pocketsphinx --enable-librsvg --enable-libmfx --enable-libdc1394 --enable-libdrm --enable-libiec61883 --enable-chromaprint --enable-frei0r --enable-libx264 --enable-shared --enable-version3 --disable-doc --disable-programs --enable-libaribb24 --enable-libopencore_amrnb --enable-libopencore_amrwb --enable-libtesseract --enable-libvo_amrwbenc --enable-libsmbclient\n",
      "  libavutil      56. 70.100 / 56. 70.100\n",
      "  libavcodec     58.134.100 / 58.134.100\n",
      "  libavformat    58. 76.100 / 58. 76.100\n",
      "  libavdevice    58. 13.100 / 58. 13.100\n",
      "  libavfilter     7.110.100 /  7.110.100\n",
      "  libswscale      5.  9.100 /  5.  9.100\n",
      "  libswresample   3.  9.100 /  3.  9.100\n",
      "  libpostproc    55.  9.100 / 55.  9.100\n",
      "Input #0, mov,mp4,m4a,3gp,3g2,mj2, from '../data/input1.mp4':\n",
      "  Metadata:\n",
      "    major_brand     : mp42\n",
      "    minor_version   : 1\n",
      "    compatible_brands: isommp41mp42\n",
      "    creation_time   : 2025-04-08T22:14:30.000000Z\n",
      "  Duration: 00:10:05.14, start: 0.000000, bitrate: 4053 kb/s\n",
      "  Stream #0:0(und): Audio: aac (LC) (mp4a / 0x6134706D), 48000 Hz, stereo, fltp, 250 kb/s (default)\n",
      "    Metadata:\n",
      "      creation_time   : 2025-04-08T22:14:30.000000Z\n",
      "      handler_name    : Core Media Audio\n",
      "      vendor_id       : [0][0][0][0]\n",
      "  Stream #0:1(und): Video: h264 (High) (avc1 / 0x31637661), yuv420p, 1920x1080 [SAR 1:1 DAR 16:9], 3798 kb/s, 25 fps, 25 tbr, 25k tbn, 50 tbc (default)\n",
      "    Metadata:\n",
      "      creation_time   : 2025-04-08T22:14:30.000000Z\n",
      "      handler_name    : Core Media Video\n",
      "      vendor_id       : [0][0][0][0]\n",
      "Output #0, mp4, to 'video_chunks/chunk_000.mp4':\n",
      "  Metadata:\n",
      "    major_brand     : mp42\n",
      "    minor_version   : 1\n",
      "    compatible_brands: isommp41mp42\n",
      "    encoder         : Lavf58.76.100\n",
      "  Stream #0:0(und): Video: h264 (High) (avc1 / 0x31637661), yuv420p, 1920x1080 [SAR 1:1 DAR 16:9], q=2-31, 3798 kb/s, 25 fps, 25 tbr, 25k tbn, 25k tbc (default)\n",
      "    Metadata:\n",
      "      creation_time   : 2025-04-08T22:14:30.000000Z\n",
      "      handler_name    : Core Media Video\n",
      "      vendor_id       : [0][0][0][0]\n",
      "  Stream #0:1(und): Audio: aac (LC) (mp4a / 0x6134706D), 48000 Hz, stereo, fltp, 250 kb/s (default)\n",
      "    Metadata:\n",
      "      creation_time   : 2025-04-08T22:14:30.000000Z\n",
      "      handler_name    : Core Media Audio\n",
      "      vendor_id       : [0][0][0][0]\n",
      "Stream mapping:\n",
      "  Stream #0:1 -> #0:0 (copy)\n",
      "  Stream #0:0 -> #0:1 (copy)\n",
      "Press [q] to stop, [?] for help\n",
      "frame= 1114 fps=0.0 q=-1.0 Lsize=   22143kB time=00:00:49.49 bitrate=3665.2kbits/s speed=1.26e+03x    \n",
      "video:20622kB audio:1486kB subtitle:0kB other streams:0kB global headers:0kB muxing overhead: 0.159494%\n",
      "ffmpeg version 4.4.2-0ubuntu0.22.04.1 Copyright (c) 2000-2021 the FFmpeg developers\n",
      "  built with gcc 11 (Ubuntu 11.2.0-19ubuntu1)\n",
      "  configuration: --prefix=/usr --extra-version=0ubuntu0.22.04.1 --toolchain=hardened --libdir=/usr/lib/x86_64-linux-gnu --incdir=/usr/include/x86_64-linux-gnu --arch=amd64 --enable-gpl --disable-stripping --enable-gnutls --enable-ladspa --enable-libaom --enable-libass --enable-libbluray --enable-libbs2b --enable-libcaca --enable-libcdio --enable-libcodec2 --enable-libdav1d --enable-libflite --enable-libfontconfig --enable-libfreetype --enable-libfribidi --enable-libgme --enable-libgsm --enable-libjack --enable-libmp3lame --enable-libmysofa --enable-libopenjpeg --enable-libopenmpt --enable-libopus --enable-libpulse --enable-librabbitmq --enable-librubberband --enable-libshine --enable-libsnappy --enable-libsoxr --enable-libspeex --enable-libsrt --enable-libssh --enable-libtheora --enable-libtwolame --enable-libvidstab --enable-libvorbis --enable-libvpx --enable-libwebp --enable-libx265 --enable-libxml2 --enable-libxvid --enable-libzimg --enable-libzmq --enable-libzvbi --enable-lv2 --enable-omx --enable-openal --enable-opencl --enable-opengl --enable-sdl2 --enable-pocketsphinx --enable-librsvg --enable-libmfx --enable-libdc1394 --enable-libdrm --enable-libiec61883 --enable-chromaprint --enable-frei0r --enable-libx264 --enable-shared\n",
      "  WARNING: library configuration mismatch\n",
      "  avcodec     configuration: --prefix=/usr --extra-version=0ubuntu0.22.04.1 --toolchain=hardened --libdir=/usr/lib/x86_64-linux-gnu --incdir=/usr/include/x86_64-linux-gnu --arch=amd64 --enable-gpl --disable-stripping --enable-gnutls --enable-ladspa --enable-libaom --enable-libass --enable-libbluray --enable-libbs2b --enable-libcaca --enable-libcdio --enable-libcodec2 --enable-libdav1d --enable-libflite --enable-libfontconfig --enable-libfreetype --enable-libfribidi --enable-libgme --enable-libgsm --enable-libjack --enable-libmp3lame --enable-libmysofa --enable-libopenjpeg --enable-libopenmpt --enable-libopus --enable-libpulse --enable-librabbitmq --enable-librubberband --enable-libshine --enable-libsnappy --enable-libsoxr --enable-libspeex --enable-libsrt --enable-libssh --enable-libtheora --enable-libtwolame --enable-libvidstab --enable-libvorbis --enable-libvpx --enable-libwebp --enable-libx265 --enable-libxml2 --enable-libxvid --enable-libzimg --enable-libzmq --enable-libzvbi --enable-lv2 --enable-omx --enable-openal --enable-opencl --enable-opengl --enable-sdl2 --enable-pocketsphinx --enable-librsvg --enable-libmfx --enable-libdc1394 --enable-libdrm --enable-libiec61883 --enable-chromaprint --enable-frei0r --enable-libx264 --enable-shared --enable-version3 --disable-doc --disable-programs --enable-libaribb24 --enable-libopencore_amrnb --enable-libopencore_amrwb --enable-libtesseract --enable-libvo_amrwbenc --enable-libsmbclient\n",
      "  libavutil      56. 70.100 / 56. 70.100\n",
      "  libavcodec     58.134.100 / 58.134.100\n",
      "  libavformat    58. 76.100 / 58. 76.100\n",
      "  libavdevice    58. 13.100 / 58. 13.100\n",
      "  libavfilter     7.110.100 /  7.110.100\n",
      "  libswscale      5.  9.100 /  5.  9.100\n",
      "  libswresample   3.  9.100 /  3.  9.100\n",
      "  libpostproc    55.  9.100 / 55.  9.100\n",
      "Input #0, mov,mp4,m4a,3gp,3g2,mj2, from '../data/input1.mp4':\n",
      "  Metadata:\n",
      "    major_brand     : mp42\n",
      "    minor_version   : 1\n",
      "    compatible_brands: isommp41mp42\n",
      "    creation_time   : 2025-04-08T22:14:30.000000Z\n",
      "  Duration: 00:10:05.14, start: 0.000000, bitrate: 4053 kb/s\n",
      "  Stream #0:0(und): Audio: aac (LC) (mp4a / 0x6134706D), 48000 Hz, stereo, fltp, 250 kb/s (default)\n",
      "    Metadata:\n",
      "      creation_time   : 2025-04-08T22:14:30.000000Z\n",
      "      handler_name    : Core Media Audio\n",
      "      vendor_id       : [0][0][0][0]\n",
      "  Stream #0:1(und): Video: h264 (High) (avc1 / 0x31637661), yuv420p, 1920x1080 [SAR 1:1 DAR 16:9], 3798 kb/s, 25 fps, 25 tbr, 25k tbn, 50 tbc (default)\n",
      "    Metadata:\n",
      "      creation_time   : 2025-04-08T22:14:30.000000Z\n",
      "      handler_name    : Core Media Video\n",
      "      vendor_id       : [0][0][0][0]\n",
      "Output #0, mp4, to 'video_chunks/chunk_001.mp4':\n",
      "  Metadata:\n",
      "    major_brand     : mp42\n",
      "    minor_version   : 1\n",
      "    compatible_brands: isommp41mp42\n",
      "    encoder         : Lavf58.76.100\n",
      "  Stream #0:0(und): Video: h264 (High) (avc1 / 0x31637661), yuv420p, 1920x1080 [SAR 1:1 DAR 16:9], q=2-31, 3798 kb/s, 25 fps, 25 tbr, 25k tbn, 25k tbc (default)\n",
      "    Metadata:\n",
      "      creation_time   : 2025-04-08T22:14:30.000000Z\n",
      "      handler_name    : Core Media Video\n",
      "      vendor_id       : [0][0][0][0]\n",
      "  Stream #0:1(und): Audio: aac (LC) (mp4a / 0x6134706D), 48000 Hz, stereo, fltp, 250 kb/s (default)\n",
      "    Metadata:\n",
      "      creation_time   : 2025-04-08T22:14:30.000000Z\n",
      "      handler_name    : Core Media Audio\n",
      "      vendor_id       : [0][0][0][0]\n",
      "Stream mapping:\n",
      "  Stream #0:1 -> #0:0 (copy)\n",
      "  Stream #0:0 -> #0:1 (copy)\n",
      "Press [q] to stop, [?] for help\n",
      "frame=  874 fps=0.0 q=-1.0 Lsize=   17298kB time=00:00:37.65 bitrate=3763.2kbits/s speed= 907x    \n",
      "video:16111kB audio:1159kB subtitle:0kB other streams:0kB global headers:0kB muxing overhead: 0.160021%\n",
      "ffmpeg version 4.4.2-0ubuntu0.22.04.1 Copyright (c) 2000-2021 the FFmpeg developers\n",
      "  built with gcc 11 (Ubuntu 11.2.0-19ubuntu1)\n",
      "  configuration: --prefix=/usr --extra-version=0ubuntu0.22.04.1 --toolchain=hardened --libdir=/usr/lib/x86_64-linux-gnu --incdir=/usr/include/x86_64-linux-gnu --arch=amd64 --enable-gpl --disable-stripping --enable-gnutls --enable-ladspa --enable-libaom --enable-libass --enable-libbluray --enable-libbs2b --enable-libcaca --enable-libcdio --enable-libcodec2 --enable-libdav1d --enable-libflite --enable-libfontconfig --enable-libfreetype --enable-libfribidi --enable-libgme --enable-libgsm --enable-libjack --enable-libmp3lame --enable-libmysofa --enable-libopenjpeg --enable-libopenmpt --enable-libopus --enable-libpulse --enable-librabbitmq --enable-librubberband --enable-libshine --enable-libsnappy --enable-libsoxr --enable-libspeex --enable-libsrt --enable-libssh --enable-libtheora --enable-libtwolame --enable-libvidstab --enable-libvorbis --enable-libvpx --enable-libwebp --enable-libx265 --enable-libxml2 --enable-libxvid --enable-libzimg --enable-libzmq --enable-libzvbi --enable-lv2 --enable-omx --enable-openal --enable-opencl --enable-opengl --enable-sdl2 --enable-pocketsphinx --enable-librsvg --enable-libmfx --enable-libdc1394 --enable-libdrm --enable-libiec61883 --enable-chromaprint --enable-frei0r --enable-libx264 --enable-shared\n",
      "  WARNING: library configuration mismatch\n",
      "  avcodec     configuration: --prefix=/usr --extra-version=0ubuntu0.22.04.1 --toolchain=hardened --libdir=/usr/lib/x86_64-linux-gnu --incdir=/usr/include/x86_64-linux-gnu --arch=amd64 --enable-gpl --disable-stripping --enable-gnutls --enable-ladspa --enable-libaom --enable-libass --enable-libbluray --enable-libbs2b --enable-libcaca --enable-libcdio --enable-libcodec2 --enable-libdav1d --enable-libflite --enable-libfontconfig --enable-libfreetype --enable-libfribidi --enable-libgme --enable-libgsm --enable-libjack --enable-libmp3lame --enable-libmysofa --enable-libopenjpeg --enable-libopenmpt --enable-libopus --enable-libpulse --enable-librabbitmq --enable-librubberband --enable-libshine --enable-libsnappy --enable-libsoxr --enable-libspeex --enable-libsrt --enable-libssh --enable-libtheora --enable-libtwolame --enable-libvidstab --enable-libvorbis --enable-libvpx --enable-libwebp --enable-libx265 --enable-libxml2 --enable-libxvid --enable-libzimg --enable-libzmq --enable-libzvbi --enable-lv2 --enable-omx --enable-openal --enable-opencl --enable-opengl --enable-sdl2 --enable-pocketsphinx --enable-librsvg --enable-libmfx --enable-libdc1394 --enable-libdrm --enable-libiec61883 --enable-chromaprint --enable-frei0r --enable-libx264 --enable-shared --enable-version3 --disable-doc --disable-programs --enable-libaribb24 --enable-libopencore_amrnb --enable-libopencore_amrwb --enable-libtesseract --enable-libvo_amrwbenc --enable-libsmbclient\n",
      "  libavutil      56. 70.100 / 56. 70.100\n",
      "  libavcodec     58.134.100 / 58.134.100\n",
      "  libavformat    58. 76.100 / 58. 76.100\n",
      "  libavdevice    58. 13.100 / 58. 13.100\n",
      "  libavfilter     7.110.100 /  7.110.100\n",
      "  libswscale      5.  9.100 /  5.  9.100\n",
      "  libswresample   3.  9.100 /  3.  9.100\n",
      "  libpostproc    55.  9.100 / 55.  9.100\n",
      "Input #0, mov,mp4,m4a,3gp,3g2,mj2, from '../data/input1.mp4':\n",
      "  Metadata:\n",
      "    major_brand     : mp42\n",
      "    minor_version   : 1\n",
      "    compatible_brands: isommp41mp42\n",
      "    creation_time   : 2025-04-08T22:14:30.000000Z\n",
      "  Duration: 00:10:05.14, start: 0.000000, bitrate: 4053 kb/s\n",
      "  Stream #0:0(und): Audio: aac (LC) (mp4a / 0x6134706D), 48000 Hz, stereo, fltp, 250 kb/s (default)\n",
      "    Metadata:\n",
      "      creation_time   : 2025-04-08T22:14:30.000000Z\n",
      "      handler_name    : Core Media Audio\n",
      "      vendor_id       : [0][0][0][0]\n",
      "  Stream #0:1(und): Video: h264 (High) (avc1 / 0x31637661), yuv420p, 1920x1080 [SAR 1:1 DAR 16:9], 3798 kb/s, 25 fps, 25 tbr, 25k tbn, 50 tbc (default)\n",
      "    Metadata:\n",
      "      creation_time   : 2025-04-08T22:14:30.000000Z\n",
      "      handler_name    : Core Media Video\n",
      "      vendor_id       : [0][0][0][0]\n",
      "Output #0, mp4, to 'video_chunks/chunk_002.mp4':\n",
      "  Metadata:\n",
      "    major_brand     : mp42\n",
      "    minor_version   : 1\n",
      "    compatible_brands: isommp41mp42\n",
      "    encoder         : Lavf58.76.100\n",
      "  Stream #0:0(und): Video: h264 (High) (avc1 / 0x31637661), yuv420p, 1920x1080 [SAR 1:1 DAR 16:9], q=2-31, 3798 kb/s, 25 fps, 25 tbr, 25k tbn, 25k tbc (default)\n",
      "    Metadata:\n",
      "      creation_time   : 2025-04-08T22:14:30.000000Z\n",
      "      handler_name    : Core Media Video\n",
      "      vendor_id       : [0][0][0][0]\n",
      "  Stream #0:1(und): Audio: aac (LC) (mp4a / 0x6134706D), 48000 Hz, stereo, fltp, 250 kb/s (default)\n",
      "    Metadata:\n",
      "      creation_time   : 2025-04-08T22:14:30.000000Z\n",
      "      handler_name    : Core Media Audio\n",
      "      vendor_id       : [0][0][0][0]\n",
      "Stream mapping:\n",
      "  Stream #0:1 -> #0:0 (copy)\n",
      "  Stream #0:0 -> #0:1 (copy)\n",
      "Press [q] to stop, [?] for help\n",
      "frame= 1250 fps=0.0 q=-1.0 Lsize=   25700kB time=00:00:55.03 bitrate=3825.1kbits/s speed= 844x    \n",
      "video:23970kB audio:1690kB subtitle:0kB other streams:0kB global headers:0kB muxing overhead: 0.152392%\n",
      "ffmpeg version 4.4.2-0ubuntu0.22.04.1 Copyright (c) 2000-2021 the FFmpeg developers\n",
      "  built with gcc 11 (Ubuntu 11.2.0-19ubuntu1)\n",
      "  configuration: --prefix=/usr --extra-version=0ubuntu0.22.04.1 --toolchain=hardened --libdir=/usr/lib/x86_64-linux-gnu --incdir=/usr/include/x86_64-linux-gnu --arch=amd64 --enable-gpl --disable-stripping --enable-gnutls --enable-ladspa --enable-libaom --enable-libass --enable-libbluray --enable-libbs2b --enable-libcaca --enable-libcdio --enable-libcodec2 --enable-libdav1d --enable-libflite --enable-libfontconfig --enable-libfreetype --enable-libfribidi --enable-libgme --enable-libgsm --enable-libjack --enable-libmp3lame --enable-libmysofa --enable-libopenjpeg --enable-libopenmpt --enable-libopus --enable-libpulse --enable-librabbitmq --enable-librubberband --enable-libshine --enable-libsnappy --enable-libsoxr --enable-libspeex --enable-libsrt --enable-libssh --enable-libtheora --enable-libtwolame --enable-libvidstab --enable-libvorbis --enable-libvpx --enable-libwebp --enable-libx265 --enable-libxml2 --enable-libxvid --enable-libzimg --enable-libzmq --enable-libzvbi --enable-lv2 --enable-omx --enable-openal --enable-opencl --enable-opengl --enable-sdl2 --enable-pocketsphinx --enable-librsvg --enable-libmfx --enable-libdc1394 --enable-libdrm --enable-libiec61883 --enable-chromaprint --enable-frei0r --enable-libx264 --enable-shared\n",
      "  WARNING: library configuration mismatch\n",
      "  avcodec     configuration: --prefix=/usr --extra-version=0ubuntu0.22.04.1 --toolchain=hardened --libdir=/usr/lib/x86_64-linux-gnu --incdir=/usr/include/x86_64-linux-gnu --arch=amd64 --enable-gpl --disable-stripping --enable-gnutls --enable-ladspa --enable-libaom --enable-libass --enable-libbluray --enable-libbs2b --enable-libcaca --enable-libcdio --enable-libcodec2 --enable-libdav1d --enable-libflite --enable-libfontconfig --enable-libfreetype --enable-libfribidi --enable-libgme --enable-libgsm --enable-libjack --enable-libmp3lame --enable-libmysofa --enable-libopenjpeg --enable-libopenmpt --enable-libopus --enable-libpulse --enable-librabbitmq --enable-librubberband --enable-libshine --enable-libsnappy --enable-libsoxr --enable-libspeex --enable-libsrt --enable-libssh --enable-libtheora --enable-libtwolame --enable-libvidstab --enable-libvorbis --enable-libvpx --enable-libwebp --enable-libx265 --enable-libxml2 --enable-libxvid --enable-libzimg --enable-libzmq --enable-libzvbi --enable-lv2 --enable-omx --enable-openal --enable-opencl --enable-opengl --enable-sdl2 --enable-pocketsphinx --enable-librsvg --enable-libmfx --enable-libdc1394 --enable-libdrm --enable-libiec61883 --enable-chromaprint --enable-frei0r --enable-libx264 --enable-shared --enable-version3 --disable-doc --disable-programs --enable-libaribb24 --enable-libopencore_amrnb --enable-libopencore_amrwb --enable-libtesseract --enable-libvo_amrwbenc --enable-libsmbclient\n",
      "  libavutil      56. 70.100 / 56. 70.100\n",
      "  libavcodec     58.134.100 / 58.134.100\n",
      "  libavformat    58. 76.100 / 58. 76.100\n",
      "  libavdevice    58. 13.100 / 58. 13.100\n",
      "  libavfilter     7.110.100 /  7.110.100\n",
      "  libswscale      5.  9.100 /  5.  9.100\n",
      "  libswresample   3.  9.100 /  3.  9.100\n",
      "  libpostproc    55.  9.100 / 55.  9.100\n",
      "Input #0, mov,mp4,m4a,3gp,3g2,mj2, from '../data/input1.mp4':\n",
      "  Metadata:\n",
      "    major_brand     : mp42\n",
      "    minor_version   : 1\n",
      "    compatible_brands: isommp41mp42\n",
      "    creation_time   : 2025-04-08T22:14:30.000000Z\n",
      "  Duration: 00:10:05.14, start: 0.000000, bitrate: 4053 kb/s\n",
      "  Stream #0:0(und): Audio: aac (LC) (mp4a / 0x6134706D), 48000 Hz, stereo, fltp, 250 kb/s (default)\n",
      "    Metadata:\n",
      "      creation_time   : 2025-04-08T22:14:30.000000Z\n",
      "      handler_name    : Core Media Audio\n",
      "      vendor_id       : [0][0][0][0]\n",
      "  Stream #0:1(und): Video: h264 (High) (avc1 / 0x31637661), yuv420p, 1920x1080 [SAR 1:1 DAR 16:9], 3798 kb/s, 25 fps, 25 tbr, 25k tbn, 50 tbc (default)\n",
      "    Metadata:\n",
      "      creation_time   : 2025-04-08T22:14:30.000000Z\n",
      "      handler_name    : Core Media Video\n",
      "      vendor_id       : [0][0][0][0]\n",
      "Output #0, mp4, to 'video_chunks/chunk_003.mp4':\n",
      "  Metadata:\n",
      "    major_brand     : mp42\n",
      "    minor_version   : 1\n",
      "    compatible_brands: isommp41mp42\n",
      "    encoder         : Lavf58.76.100\n",
      "  Stream #0:0(und): Video: h264 (High) (avc1 / 0x31637661), yuv420p, 1920x1080 [SAR 1:1 DAR 16:9], q=2-31, 3798 kb/s, 25 fps, 25 tbr, 25k tbn, 25k tbc (default)\n",
      "    Metadata:\n",
      "      creation_time   : 2025-04-08T22:14:30.000000Z\n",
      "      handler_name    : Core Media Video\n",
      "      vendor_id       : [0][0][0][0]\n",
      "  Stream #0:1(und): Audio: aac (LC) (mp4a / 0x6134706D), 48000 Hz, stereo, fltp, 250 kb/s (default)\n",
      "    Metadata:\n",
      "      creation_time   : 2025-04-08T22:14:30.000000Z\n",
      "      handler_name    : Core Media Audio\n",
      "      vendor_id       : [0][0][0][0]\n",
      "Stream mapping:\n",
      "  Stream #0:1 -> #0:0 (copy)\n",
      "  Stream #0:0 -> #0:1 (copy)\n",
      "Press [q] to stop, [?] for help\n",
      "frame= 1269 fps=0.0 q=-1.0 Lsize=   23968kB time=00:00:58.54 bitrate=3353.7kbits/s speed= 680x    \n",
      "video:22141kB audio:1787kB subtitle:0kB other streams:0kB global headers:0kB muxing overhead: 0.169011%\n",
      "ffmpeg version 4.4.2-0ubuntu0.22.04.1 Copyright (c) 2000-2021 the FFmpeg developers\n",
      "  built with gcc 11 (Ubuntu 11.2.0-19ubuntu1)\n",
      "  configuration: --prefix=/usr --extra-version=0ubuntu0.22.04.1 --toolchain=hardened --libdir=/usr/lib/x86_64-linux-gnu --incdir=/usr/include/x86_64-linux-gnu --arch=amd64 --enable-gpl --disable-stripping --enable-gnutls --enable-ladspa --enable-libaom --enable-libass --enable-libbluray --enable-libbs2b --enable-libcaca --enable-libcdio --enable-libcodec2 --enable-libdav1d --enable-libflite --enable-libfontconfig --enable-libfreetype --enable-libfribidi --enable-libgme --enable-libgsm --enable-libjack --enable-libmp3lame --enable-libmysofa --enable-libopenjpeg --enable-libopenmpt --enable-libopus --enable-libpulse --enable-librabbitmq --enable-librubberband --enable-libshine --enable-libsnappy --enable-libsoxr --enable-libspeex --enable-libsrt --enable-libssh --enable-libtheora --enable-libtwolame --enable-libvidstab --enable-libvorbis --enable-libvpx --enable-libwebp --enable-libx265 --enable-libxml2 --enable-libxvid --enable-libzimg --enable-libzmq --enable-libzvbi --enable-lv2 --enable-omx --enable-openal --enable-opencl --enable-opengl --enable-sdl2 --enable-pocketsphinx --enable-librsvg --enable-libmfx --enable-libdc1394 --enable-libdrm --enable-libiec61883 --enable-chromaprint --enable-frei0r --enable-libx264 --enable-shared\n",
      "  WARNING: library configuration mismatch\n",
      "  avcodec     configuration: --prefix=/usr --extra-version=0ubuntu0.22.04.1 --toolchain=hardened --libdir=/usr/lib/x86_64-linux-gnu --incdir=/usr/include/x86_64-linux-gnu --arch=amd64 --enable-gpl --disable-stripping --enable-gnutls --enable-ladspa --enable-libaom --enable-libass --enable-libbluray --enable-libbs2b --enable-libcaca --enable-libcdio --enable-libcodec2 --enable-libdav1d --enable-libflite --enable-libfontconfig --enable-libfreetype --enable-libfribidi --enable-libgme --enable-libgsm --enable-libjack --enable-libmp3lame --enable-libmysofa --enable-libopenjpeg --enable-libopenmpt --enable-libopus --enable-libpulse --enable-librabbitmq --enable-librubberband --enable-libshine --enable-libsnappy --enable-libsoxr --enable-libspeex --enable-libsrt --enable-libssh --enable-libtheora --enable-libtwolame --enable-libvidstab --enable-libvorbis --enable-libvpx --enable-libwebp --enable-libx265 --enable-libxml2 --enable-libxvid --enable-libzimg --enable-libzmq --enable-libzvbi --enable-lv2 --enable-omx --enable-openal --enable-opencl --enable-opengl --enable-sdl2 --enable-pocketsphinx --enable-librsvg --enable-libmfx --enable-libdc1394 --enable-libdrm --enable-libiec61883 --enable-chromaprint --enable-frei0r --enable-libx264 --enable-shared --enable-version3 --disable-doc --disable-programs --enable-libaribb24 --enable-libopencore_amrnb --enable-libopencore_amrwb --enable-libtesseract --enable-libvo_amrwbenc --enable-libsmbclient\n",
      "  libavutil      56. 70.100 / 56. 70.100\n",
      "  libavcodec     58.134.100 / 58.134.100\n",
      "  libavformat    58. 76.100 / 58. 76.100\n",
      "  libavdevice    58. 13.100 / 58. 13.100\n",
      "  libavfilter     7.110.100 /  7.110.100\n",
      "  libswscale      5.  9.100 /  5.  9.100\n",
      "  libswresample   3.  9.100 /  3.  9.100\n",
      "  libpostproc    55.  9.100 / 55.  9.100\n",
      "Input #0, mov,mp4,m4a,3gp,3g2,mj2, from '../data/input1.mp4':\n",
      "  Metadata:\n",
      "    major_brand     : mp42\n",
      "    minor_version   : 1\n",
      "    compatible_brands: isommp41mp42\n",
      "    creation_time   : 2025-04-08T22:14:30.000000Z\n",
      "  Duration: 00:10:05.14, start: 0.000000, bitrate: 4053 kb/s\n",
      "  Stream #0:0(und): Audio: aac (LC) (mp4a / 0x6134706D), 48000 Hz, stereo, fltp, 250 kb/s (default)\n",
      "    Metadata:\n",
      "      creation_time   : 2025-04-08T22:14:30.000000Z\n",
      "      handler_name    : Core Media Audio\n",
      "      vendor_id       : [0][0][0][0]\n",
      "  Stream #0:1(und): Video: h264 (High) (avc1 / 0x31637661), yuv420p, 1920x1080 [SAR 1:1 DAR 16:9], 3798 kb/s, 25 fps, 25 tbr, 25k tbn, 50 tbc (default)\n",
      "    Metadata:\n",
      "      creation_time   : 2025-04-08T22:14:30.000000Z\n",
      "      handler_name    : Core Media Video\n",
      "      vendor_id       : [0][0][0][0]\n",
      "Output #0, mp4, to 'video_chunks/chunk_004.mp4':\n",
      "  Metadata:\n",
      "    major_brand     : mp42\n",
      "    minor_version   : 1\n",
      "    compatible_brands: isommp41mp42\n",
      "    encoder         : Lavf58.76.100\n",
      "  Stream #0:0(und): Video: h264 (High) (avc1 / 0x31637661), yuv420p, 1920x1080 [SAR 1:1 DAR 16:9], q=2-31, 3798 kb/s, 25 fps, 25 tbr, 25k tbn, 25k tbc (default)\n",
      "    Metadata:\n",
      "      creation_time   : 2025-04-08T22:14:30.000000Z\n",
      "      handler_name    : Core Media Video\n",
      "      vendor_id       : [0][0][0][0]\n",
      "  Stream #0:1(und): Audio: aac (LC) (mp4a / 0x6134706D), 48000 Hz, stereo, fltp, 250 kb/s (default)\n",
      "    Metadata:\n",
      "      creation_time   : 2025-04-08T22:14:30.000000Z\n",
      "      handler_name    : Core Media Audio\n",
      "      vendor_id       : [0][0][0][0]\n",
      "Stream mapping:\n",
      "  Stream #0:1 -> #0:0 (copy)\n",
      "  Stream #0:0 -> #0:1 (copy)\n",
      "Press [q] to stop, [?] for help\n",
      "frame= 1463 fps=0.0 q=-1.0 Lsize=   28473kB time=00:00:59.96 bitrate=3890.0kbits/s speed= 562x    \n",
      "video:26587kB audio:1841kB subtitle:0kB other streams:0kB global headers:0kB muxing overhead: 0.156779%\n",
      "ffmpeg version 4.4.2-0ubuntu0.22.04.1 Copyright (c) 2000-2021 the FFmpeg developers\n",
      "  built with gcc 11 (Ubuntu 11.2.0-19ubuntu1)\n",
      "  configuration: --prefix=/usr --extra-version=0ubuntu0.22.04.1 --toolchain=hardened --libdir=/usr/lib/x86_64-linux-gnu --incdir=/usr/include/x86_64-linux-gnu --arch=amd64 --enable-gpl --disable-stripping --enable-gnutls --enable-ladspa --enable-libaom --enable-libass --enable-libbluray --enable-libbs2b --enable-libcaca --enable-libcdio --enable-libcodec2 --enable-libdav1d --enable-libflite --enable-libfontconfig --enable-libfreetype --enable-libfribidi --enable-libgme --enable-libgsm --enable-libjack --enable-libmp3lame --enable-libmysofa --enable-libopenjpeg --enable-libopenmpt --enable-libopus --enable-libpulse --enable-librabbitmq --enable-librubberband --enable-libshine --enable-libsnappy --enable-libsoxr --enable-libspeex --enable-libsrt --enable-libssh --enable-libtheora --enable-libtwolame --enable-libvidstab --enable-libvorbis --enable-libvpx --enable-libwebp --enable-libx265 --enable-libxml2 --enable-libxvid --enable-libzimg --enable-libzmq --enable-libzvbi --enable-lv2 --enable-omx --enable-openal --enable-opencl --enable-opengl --enable-sdl2 --enable-pocketsphinx --enable-librsvg --enable-libmfx --enable-libdc1394 --enable-libdrm --enable-libiec61883 --enable-chromaprint --enable-frei0r --enable-libx264 --enable-shared\n",
      "  WARNING: library configuration mismatch\n",
      "  avcodec     configuration: --prefix=/usr --extra-version=0ubuntu0.22.04.1 --toolchain=hardened --libdir=/usr/lib/x86_64-linux-gnu --incdir=/usr/include/x86_64-linux-gnu --arch=amd64 --enable-gpl --disable-stripping --enable-gnutls --enable-ladspa --enable-libaom --enable-libass --enable-libbluray --enable-libbs2b --enable-libcaca --enable-libcdio --enable-libcodec2 --enable-libdav1d --enable-libflite --enable-libfontconfig --enable-libfreetype --enable-libfribidi --enable-libgme --enable-libgsm --enable-libjack --enable-libmp3lame --enable-libmysofa --enable-libopenjpeg --enable-libopenmpt --enable-libopus --enable-libpulse --enable-librabbitmq --enable-librubberband --enable-libshine --enable-libsnappy --enable-libsoxr --enable-libspeex --enable-libsrt --enable-libssh --enable-libtheora --enable-libtwolame --enable-libvidstab --enable-libvorbis --enable-libvpx --enable-libwebp --enable-libx265 --enable-libxml2 --enable-libxvid --enable-libzimg --enable-libzmq --enable-libzvbi --enable-lv2 --enable-omx --enable-openal --enable-opencl --enable-opengl --enable-sdl2 --enable-pocketsphinx --enable-librsvg --enable-libmfx --enable-libdc1394 --enable-libdrm --enable-libiec61883 --enable-chromaprint --enable-frei0r --enable-libx264 --enable-shared --enable-version3 --disable-doc --disable-programs --enable-libaribb24 --enable-libopencore_amrnb --enable-libopencore_amrwb --enable-libtesseract --enable-libvo_amrwbenc --enable-libsmbclient\n",
      "  libavutil      56. 70.100 / 56. 70.100\n",
      "  libavcodec     58.134.100 / 58.134.100\n",
      "  libavformat    58. 76.100 / 58. 76.100\n",
      "  libavdevice    58. 13.100 / 58. 13.100\n",
      "  libavfilter     7.110.100 /  7.110.100\n",
      "  libswscale      5.  9.100 /  5.  9.100\n",
      "  libswresample   3.  9.100 /  3.  9.100\n",
      "  libpostproc    55.  9.100 / 55.  9.100\n",
      "Input #0, mov,mp4,m4a,3gp,3g2,mj2, from '../data/input1.mp4':\n",
      "  Metadata:\n",
      "    major_brand     : mp42\n",
      "    minor_version   : 1\n",
      "    compatible_brands: isommp41mp42\n",
      "    creation_time   : 2025-04-08T22:14:30.000000Z\n",
      "  Duration: 00:10:05.14, start: 0.000000, bitrate: 4053 kb/s\n",
      "  Stream #0:0(und): Audio: aac (LC) (mp4a / 0x6134706D), 48000 Hz, stereo, fltp, 250 kb/s (default)\n",
      "    Metadata:\n",
      "      creation_time   : 2025-04-08T22:14:30.000000Z\n",
      "      handler_name    : Core Media Audio\n",
      "      vendor_id       : [0][0][0][0]\n",
      "  Stream #0:1(und): Video: h264 (High) (avc1 / 0x31637661), yuv420p, 1920x1080 [SAR 1:1 DAR 16:9], 3798 kb/s, 25 fps, 25 tbr, 25k tbn, 50 tbc (default)\n",
      "    Metadata:\n",
      "      creation_time   : 2025-04-08T22:14:30.000000Z\n",
      "      handler_name    : Core Media Video\n",
      "      vendor_id       : [0][0][0][0]\n",
      "Output #0, mp4, to 'video_chunks/chunk_005.mp4':\n",
      "  Metadata:\n",
      "    major_brand     : mp42\n",
      "    minor_version   : 1\n",
      "    compatible_brands: isommp41mp42\n",
      "    encoder         : Lavf58.76.100\n",
      "  Stream #0:0(und): Video: h264 (High) (avc1 / 0x31637661), yuv420p, 1920x1080 [SAR 1:1 DAR 16:9], q=2-31, 3798 kb/s, 25 fps, 25 tbr, 25k tbn, 25k tbc (default)\n",
      "    Metadata:\n",
      "      creation_time   : 2025-04-08T22:14:30.000000Z\n",
      "      handler_name    : Core Media Video\n",
      "      vendor_id       : [0][0][0][0]\n",
      "  Stream #0:1(und): Audio: aac (LC) (mp4a / 0x6134706D), 48000 Hz, stereo, fltp, 250 kb/s (default)\n",
      "    Metadata:\n",
      "      creation_time   : 2025-04-08T22:14:30.000000Z\n",
      "      handler_name    : Core Media Audio\n",
      "      vendor_id       : [0][0][0][0]\n",
      "Stream mapping:\n",
      "  Stream #0:1 -> #0:0 (copy)\n",
      "  Stream #0:0 -> #0:1 (copy)\n",
      "Press [q] to stop, [?] for help\n",
      "frame= 1415 fps=0.0 q=-1.0 Lsize=   28102kB time=00:00:58.04 bitrate=3965.7kbits/s speed= 469x    \n",
      "video:26285kB audio:1773kB subtitle:0kB other streams:0kB global headers:0kB muxing overhead: 0.155437%\n",
      "ffmpeg version 4.4.2-0ubuntu0.22.04.1 Copyright (c) 2000-2021 the FFmpeg developers\n",
      "  built with gcc 11 (Ubuntu 11.2.0-19ubuntu1)\n",
      "  configuration: --prefix=/usr --extra-version=0ubuntu0.22.04.1 --toolchain=hardened --libdir=/usr/lib/x86_64-linux-gnu --incdir=/usr/include/x86_64-linux-gnu --arch=amd64 --enable-gpl --disable-stripping --enable-gnutls --enable-ladspa --enable-libaom --enable-libass --enable-libbluray --enable-libbs2b --enable-libcaca --enable-libcdio --enable-libcodec2 --enable-libdav1d --enable-libflite --enable-libfontconfig --enable-libfreetype --enable-libfribidi --enable-libgme --enable-libgsm --enable-libjack --enable-libmp3lame --enable-libmysofa --enable-libopenjpeg --enable-libopenmpt --enable-libopus --enable-libpulse --enable-librabbitmq --enable-librubberband --enable-libshine --enable-libsnappy --enable-libsoxr --enable-libspeex --enable-libsrt --enable-libssh --enable-libtheora --enable-libtwolame --enable-libvidstab --enable-libvorbis --enable-libvpx --enable-libwebp --enable-libx265 --enable-libxml2 --enable-libxvid --enable-libzimg --enable-libzmq --enable-libzvbi --enable-lv2 --enable-omx --enable-openal --enable-opencl --enable-opengl --enable-sdl2 --enable-pocketsphinx --enable-librsvg --enable-libmfx --enable-libdc1394 --enable-libdrm --enable-libiec61883 --enable-chromaprint --enable-frei0r --enable-libx264 --enable-shared\n",
      "  WARNING: library configuration mismatch\n",
      "  avcodec     configuration: --prefix=/usr --extra-version=0ubuntu0.22.04.1 --toolchain=hardened --libdir=/usr/lib/x86_64-linux-gnu --incdir=/usr/include/x86_64-linux-gnu --arch=amd64 --enable-gpl --disable-stripping --enable-gnutls --enable-ladspa --enable-libaom --enable-libass --enable-libbluray --enable-libbs2b --enable-libcaca --enable-libcdio --enable-libcodec2 --enable-libdav1d --enable-libflite --enable-libfontconfig --enable-libfreetype --enable-libfribidi --enable-libgme --enable-libgsm --enable-libjack --enable-libmp3lame --enable-libmysofa --enable-libopenjpeg --enable-libopenmpt --enable-libopus --enable-libpulse --enable-librabbitmq --enable-librubberband --enable-libshine --enable-libsnappy --enable-libsoxr --enable-libspeex --enable-libsrt --enable-libssh --enable-libtheora --enable-libtwolame --enable-libvidstab --enable-libvorbis --enable-libvpx --enable-libwebp --enable-libx265 --enable-libxml2 --enable-libxvid --enable-libzimg --enable-libzmq --enable-libzvbi --enable-lv2 --enable-omx --enable-openal --enable-opencl --enable-opengl --enable-sdl2 --enable-pocketsphinx --enable-librsvg --enable-libmfx --enable-libdc1394 --enable-libdrm --enable-libiec61883 --enable-chromaprint --enable-frei0r --enable-libx264 --enable-shared --enable-version3 --disable-doc --disable-programs --enable-libaribb24 --enable-libopencore_amrnb --enable-libopencore_amrwb --enable-libtesseract --enable-libvo_amrwbenc --enable-libsmbclient\n",
      "  libavutil      56. 70.100 / 56. 70.100\n",
      "  libavcodec     58.134.100 / 58.134.100\n",
      "  libavformat    58. 76.100 / 58. 76.100\n",
      "  libavdevice    58. 13.100 / 58. 13.100\n",
      "  libavfilter     7.110.100 /  7.110.100\n",
      "  libswscale      5.  9.100 /  5.  9.100\n",
      "  libswresample   3.  9.100 /  3.  9.100\n",
      "  libpostproc    55.  9.100 / 55.  9.100\n",
      "Input #0, mov,mp4,m4a,3gp,3g2,mj2, from '../data/input1.mp4':\n",
      "  Metadata:\n",
      "    major_brand     : mp42\n",
      "    minor_version   : 1\n",
      "    compatible_brands: isommp41mp42\n",
      "    creation_time   : 2025-04-08T22:14:30.000000Z\n",
      "  Duration: 00:10:05.14, start: 0.000000, bitrate: 4053 kb/s\n",
      "  Stream #0:0(und): Audio: aac (LC) (mp4a / 0x6134706D), 48000 Hz, stereo, fltp, 250 kb/s (default)\n",
      "    Metadata:\n",
      "      creation_time   : 2025-04-08T22:14:30.000000Z\n",
      "      handler_name    : Core Media Audio\n",
      "      vendor_id       : [0][0][0][0]\n",
      "  Stream #0:1(und): Video: h264 (High) (avc1 / 0x31637661), yuv420p, 1920x1080 [SAR 1:1 DAR 16:9], 3798 kb/s, 25 fps, 25 tbr, 25k tbn, 50 tbc (default)\n",
      "    Metadata:\n",
      "      creation_time   : 2025-04-08T22:14:30.000000Z\n",
      "      handler_name    : Core Media Video\n",
      "      vendor_id       : [0][0][0][0]\n",
      "Output #0, mp4, to 'video_chunks/chunk_006.mp4':\n",
      "  Metadata:\n",
      "    major_brand     : mp42\n",
      "    minor_version   : 1\n",
      "    compatible_brands: isommp41mp42\n",
      "    encoder         : Lavf58.76.100\n",
      "  Stream #0:0(und): Video: h264 (High) (avc1 / 0x31637661), yuv420p, 1920x1080 [SAR 1:1 DAR 16:9], q=2-31, 3798 kb/s, 25 fps, 25 tbr, 25k tbn, 25k tbc (default)\n",
      "    Metadata:\n",
      "      creation_time   : 2025-04-08T22:14:30.000000Z\n",
      "      handler_name    : Core Media Video\n",
      "      vendor_id       : [0][0][0][0]\n",
      "  Stream #0:1(und): Audio: aac (LC) (mp4a / 0x6134706D), 48000 Hz, stereo, fltp, 250 kb/s (default)\n",
      "    Metadata:\n",
      "      creation_time   : 2025-04-08T22:14:30.000000Z\n",
      "      handler_name    : Core Media Audio\n",
      "      vendor_id       : [0][0][0][0]\n",
      "Stream mapping:\n",
      "  Stream #0:1 -> #0:0 (copy)\n",
      "  Stream #0:0 -> #0:1 (copy)\n",
      "Press [q] to stop, [?] for help\n",
      "frame= 1315 fps=0.0 q=-1.0 Lsize=   28228kB time=00:00:56.02 bitrate=4127.9kbits/s speed= 429x    \n",
      "video:26483kB audio:1705kB subtitle:0kB other streams:0kB global headers:0kB muxing overhead: 0.144952%\n",
      "ffmpeg version 4.4.2-0ubuntu0.22.04.1 Copyright (c) 2000-2021 the FFmpeg developers\n",
      "  built with gcc 11 (Ubuntu 11.2.0-19ubuntu1)\n",
      "  configuration: --prefix=/usr --extra-version=0ubuntu0.22.04.1 --toolchain=hardened --libdir=/usr/lib/x86_64-linux-gnu --incdir=/usr/include/x86_64-linux-gnu --arch=amd64 --enable-gpl --disable-stripping --enable-gnutls --enable-ladspa --enable-libaom --enable-libass --enable-libbluray --enable-libbs2b --enable-libcaca --enable-libcdio --enable-libcodec2 --enable-libdav1d --enable-libflite --enable-libfontconfig --enable-libfreetype --enable-libfribidi --enable-libgme --enable-libgsm --enable-libjack --enable-libmp3lame --enable-libmysofa --enable-libopenjpeg --enable-libopenmpt --enable-libopus --enable-libpulse --enable-librabbitmq --enable-librubberband --enable-libshine --enable-libsnappy --enable-libsoxr --enable-libspeex --enable-libsrt --enable-libssh --enable-libtheora --enable-libtwolame --enable-libvidstab --enable-libvorbis --enable-libvpx --enable-libwebp --enable-libx265 --enable-libxml2 --enable-libxvid --enable-libzimg --enable-libzmq --enable-libzvbi --enable-lv2 --enable-omx --enable-openal --enable-opencl --enable-opengl --enable-sdl2 --enable-pocketsphinx --enable-librsvg --enable-libmfx --enable-libdc1394 --enable-libdrm --enable-libiec61883 --enable-chromaprint --enable-frei0r --enable-libx264 --enable-shared\n",
      "  WARNING: library configuration mismatch\n",
      "  avcodec     configuration: --prefix=/usr --extra-version=0ubuntu0.22.04.1 --toolchain=hardened --libdir=/usr/lib/x86_64-linux-gnu --incdir=/usr/include/x86_64-linux-gnu --arch=amd64 --enable-gpl --disable-stripping --enable-gnutls --enable-ladspa --enable-libaom --enable-libass --enable-libbluray --enable-libbs2b --enable-libcaca --enable-libcdio --enable-libcodec2 --enable-libdav1d --enable-libflite --enable-libfontconfig --enable-libfreetype --enable-libfribidi --enable-libgme --enable-libgsm --enable-libjack --enable-libmp3lame --enable-libmysofa --enable-libopenjpeg --enable-libopenmpt --enable-libopus --enable-libpulse --enable-librabbitmq --enable-librubberband --enable-libshine --enable-libsnappy --enable-libsoxr --enable-libspeex --enable-libsrt --enable-libssh --enable-libtheora --enable-libtwolame --enable-libvidstab --enable-libvorbis --enable-libvpx --enable-libwebp --enable-libx265 --enable-libxml2 --enable-libxvid --enable-libzimg --enable-libzmq --enable-libzvbi --enable-lv2 --enable-omx --enable-openal --enable-opencl --enable-opengl --enable-sdl2 --enable-pocketsphinx --enable-librsvg --enable-libmfx --enable-libdc1394 --enable-libdrm --enable-libiec61883 --enable-chromaprint --enable-frei0r --enable-libx264 --enable-shared --enable-version3 --disable-doc --disable-programs --enable-libaribb24 --enable-libopencore_amrnb --enable-libopencore_amrwb --enable-libtesseract --enable-libvo_amrwbenc --enable-libsmbclient\n",
      "  libavutil      56. 70.100 / 56. 70.100\n",
      "  libavcodec     58.134.100 / 58.134.100\n",
      "  libavformat    58. 76.100 / 58. 76.100\n",
      "  libavdevice    58. 13.100 / 58. 13.100\n",
      "  libavfilter     7.110.100 /  7.110.100\n",
      "  libswscale      5.  9.100 /  5.  9.100\n",
      "  libswresample   3.  9.100 /  3.  9.100\n",
      "  libpostproc    55.  9.100 / 55.  9.100\n",
      "Input #0, mov,mp4,m4a,3gp,3g2,mj2, from '../data/input1.mp4':\n",
      "  Metadata:\n",
      "    major_brand     : mp42\n",
      "    minor_version   : 1\n",
      "    compatible_brands: isommp41mp42\n",
      "    creation_time   : 2025-04-08T22:14:30.000000Z\n",
      "  Duration: 00:10:05.14, start: 0.000000, bitrate: 4053 kb/s\n",
      "  Stream #0:0(und): Audio: aac (LC) (mp4a / 0x6134706D), 48000 Hz, stereo, fltp, 250 kb/s (default)\n",
      "    Metadata:\n",
      "      creation_time   : 2025-04-08T22:14:30.000000Z\n",
      "      handler_name    : Core Media Audio\n",
      "      vendor_id       : [0][0][0][0]\n",
      "  Stream #0:1(und): Video: h264 (High) (avc1 / 0x31637661), yuv420p, 1920x1080 [SAR 1:1 DAR 16:9], 3798 kb/s, 25 fps, 25 tbr, 25k tbn, 50 tbc (default)\n",
      "    Metadata:\n",
      "      creation_time   : 2025-04-08T22:14:30.000000Z\n",
      "      handler_name    : Core Media Video\n",
      "      vendor_id       : [0][0][0][0]\n",
      "Output #0, mp4, to 'video_chunks/chunk_007.mp4':\n",
      "  Metadata:\n",
      "    major_brand     : mp42\n",
      "    minor_version   : 1\n",
      "    compatible_brands: isommp41mp42\n",
      "    encoder         : Lavf58.76.100\n",
      "  Stream #0:0(und): Video: h264 (High) (avc1 / 0x31637661), yuv420p, 1920x1080 [SAR 1:1 DAR 16:9], q=2-31, 3798 kb/s, 25 fps, 25 tbr, 25k tbn, 25k tbc (default)\n",
      "    Metadata:\n",
      "      creation_time   : 2025-04-08T22:14:30.000000Z\n",
      "      handler_name    : Core Media Video\n",
      "      vendor_id       : [0][0][0][0]\n",
      "  Stream #0:1(und): Audio: aac (LC) (mp4a / 0x6134706D), 48000 Hz, stereo, fltp, 250 kb/s (default)\n",
      "    Metadata:\n",
      "      creation_time   : 2025-04-08T22:14:30.000000Z\n",
      "      handler_name    : Core Media Audio\n",
      "      vendor_id       : [0][0][0][0]\n",
      "Stream mapping:\n",
      "  Stream #0:1 -> #0:0 (copy)\n",
      "  Stream #0:0 -> #0:1 (copy)\n",
      "Press [q] to stop, [?] for help\n",
      "frame= 1236 fps=0.0 q=-1.0 Lsize=   25796kB time=00:00:56.81 bitrate=3719.7kbits/s speed= 401x    \n",
      "video:24021kB audio:1736kB subtitle:0kB other streams:0kB global headers:0kB muxing overhead: 0.150467%\n",
      "ffmpeg version 4.4.2-0ubuntu0.22.04.1 Copyright (c) 2000-2021 the FFmpeg developers\n",
      "  built with gcc 11 (Ubuntu 11.2.0-19ubuntu1)\n",
      "  configuration: --prefix=/usr --extra-version=0ubuntu0.22.04.1 --toolchain=hardened --libdir=/usr/lib/x86_64-linux-gnu --incdir=/usr/include/x86_64-linux-gnu --arch=amd64 --enable-gpl --disable-stripping --enable-gnutls --enable-ladspa --enable-libaom --enable-libass --enable-libbluray --enable-libbs2b --enable-libcaca --enable-libcdio --enable-libcodec2 --enable-libdav1d --enable-libflite --enable-libfontconfig --enable-libfreetype --enable-libfribidi --enable-libgme --enable-libgsm --enable-libjack --enable-libmp3lame --enable-libmysofa --enable-libopenjpeg --enable-libopenmpt --enable-libopus --enable-libpulse --enable-librabbitmq --enable-librubberband --enable-libshine --enable-libsnappy --enable-libsoxr --enable-libspeex --enable-libsrt --enable-libssh --enable-libtheora --enable-libtwolame --enable-libvidstab --enable-libvorbis --enable-libvpx --enable-libwebp --enable-libx265 --enable-libxml2 --enable-libxvid --enable-libzimg --enable-libzmq --enable-libzvbi --enable-lv2 --enable-omx --enable-openal --enable-opencl --enable-opengl --enable-sdl2 --enable-pocketsphinx --enable-librsvg --enable-libmfx --enable-libdc1394 --enable-libdrm --enable-libiec61883 --enable-chromaprint --enable-frei0r --enable-libx264 --enable-shared\n",
      "  WARNING: library configuration mismatch\n",
      "  avcodec     configuration: --prefix=/usr --extra-version=0ubuntu0.22.04.1 --toolchain=hardened --libdir=/usr/lib/x86_64-linux-gnu --incdir=/usr/include/x86_64-linux-gnu --arch=amd64 --enable-gpl --disable-stripping --enable-gnutls --enable-ladspa --enable-libaom --enable-libass --enable-libbluray --enable-libbs2b --enable-libcaca --enable-libcdio --enable-libcodec2 --enable-libdav1d --enable-libflite --enable-libfontconfig --enable-libfreetype --enable-libfribidi --enable-libgme --enable-libgsm --enable-libjack --enable-libmp3lame --enable-libmysofa --enable-libopenjpeg --enable-libopenmpt --enable-libopus --enable-libpulse --enable-librabbitmq --enable-librubberband --enable-libshine --enable-libsnappy --enable-libsoxr --enable-libspeex --enable-libsrt --enable-libssh --enable-libtheora --enable-libtwolame --enable-libvidstab --enable-libvorbis --enable-libvpx --enable-libwebp --enable-libx265 --enable-libxml2 --enable-libxvid --enable-libzimg --enable-libzmq --enable-libzvbi --enable-lv2 --enable-omx --enable-openal --enable-opencl --enable-opengl --enable-sdl2 --enable-pocketsphinx --enable-librsvg --enable-libmfx --enable-libdc1394 --enable-libdrm --enable-libiec61883 --enable-chromaprint --enable-frei0r --enable-libx264 --enable-shared --enable-version3 --disable-doc --disable-programs --enable-libaribb24 --enable-libopencore_amrnb --enable-libopencore_amrwb --enable-libtesseract --enable-libvo_amrwbenc --enable-libsmbclient\n",
      "  libavutil      56. 70.100 / 56. 70.100\n",
      "  libavcodec     58.134.100 / 58.134.100\n",
      "  libavformat    58. 76.100 / 58. 76.100\n",
      "  libavdevice    58. 13.100 / 58. 13.100\n",
      "  libavfilter     7.110.100 /  7.110.100\n",
      "  libswscale      5.  9.100 /  5.  9.100\n",
      "  libswresample   3.  9.100 /  3.  9.100\n",
      "  libpostproc    55.  9.100 / 55.  9.100\n",
      "Input #0, mov,mp4,m4a,3gp,3g2,mj2, from '../data/input1.mp4':\n",
      "  Metadata:\n",
      "    major_brand     : mp42\n",
      "    minor_version   : 1\n",
      "    compatible_brands: isommp41mp42\n",
      "    creation_time   : 2025-04-08T22:14:30.000000Z\n",
      "  Duration: 00:10:05.14, start: 0.000000, bitrate: 4053 kb/s\n",
      "  Stream #0:0(und): Audio: aac (LC) (mp4a / 0x6134706D), 48000 Hz, stereo, fltp, 250 kb/s (default)\n",
      "    Metadata:\n",
      "      creation_time   : 2025-04-08T22:14:30.000000Z\n",
      "      handler_name    : Core Media Audio\n",
      "      vendor_id       : [0][0][0][0]\n",
      "  Stream #0:1(und): Video: h264 (High) (avc1 / 0x31637661), yuv420p, 1920x1080 [SAR 1:1 DAR 16:9], 3798 kb/s, 25 fps, 25 tbr, 25k tbn, 50 tbc (default)\n",
      "    Metadata:\n",
      "      creation_time   : 2025-04-08T22:14:30.000000Z\n",
      "      handler_name    : Core Media Video\n",
      "      vendor_id       : [0][0][0][0]\n",
      "Output #0, mp4, to 'video_chunks/chunk_008.mp4':\n",
      "  Metadata:\n",
      "    major_brand     : mp42\n",
      "    minor_version   : 1\n",
      "    compatible_brands: isommp41mp42\n",
      "    encoder         : Lavf58.76.100\n",
      "  Stream #0:0(und): Video: h264 (High) (avc1 / 0x31637661), yuv420p, 1920x1080 [SAR 1:1 DAR 16:9], q=2-31, 3798 kb/s, 25 fps, 25 tbr, 25k tbn, 25k tbc (default)\n",
      "    Metadata:\n",
      "      creation_time   : 2025-04-08T22:14:30.000000Z\n",
      "      handler_name    : Core Media Video\n",
      "      vendor_id       : [0][0][0][0]\n",
      "  Stream #0:1(und): Audio: aac (LC) (mp4a / 0x6134706D), 48000 Hz, stereo, fltp, 250 kb/s (default)\n",
      "    Metadata:\n",
      "      creation_time   : 2025-04-08T22:14:30.000000Z\n",
      "      handler_name    : Core Media Audio\n",
      "      vendor_id       : [0][0][0][0]\n",
      "Stream mapping:\n",
      "  Stream #0:1 -> #0:0 (copy)\n",
      "  Stream #0:0 -> #0:1 (copy)\n",
      "Press [q] to stop, [?] for help\n",
      "frame= 1239 fps=0.0 q=-1.0 Lsize=   23494kB time=00:00:59.12 bitrate=3255.3kbits/s speed= 374x    \n",
      "video:21645kB audio:1809kB subtitle:0kB other streams:0kB global headers:0kB muxing overhead: 0.169879%\n",
      "ffmpeg version 4.4.2-0ubuntu0.22.04.1 Copyright (c) 2000-2021 the FFmpeg developers\n",
      "  built with gcc 11 (Ubuntu 11.2.0-19ubuntu1)\n",
      "  configuration: --prefix=/usr --extra-version=0ubuntu0.22.04.1 --toolchain=hardened --libdir=/usr/lib/x86_64-linux-gnu --incdir=/usr/include/x86_64-linux-gnu --arch=amd64 --enable-gpl --disable-stripping --enable-gnutls --enable-ladspa --enable-libaom --enable-libass --enable-libbluray --enable-libbs2b --enable-libcaca --enable-libcdio --enable-libcodec2 --enable-libdav1d --enable-libflite --enable-libfontconfig --enable-libfreetype --enable-libfribidi --enable-libgme --enable-libgsm --enable-libjack --enable-libmp3lame --enable-libmysofa --enable-libopenjpeg --enable-libopenmpt --enable-libopus --enable-libpulse --enable-librabbitmq --enable-librubberband --enable-libshine --enable-libsnappy --enable-libsoxr --enable-libspeex --enable-libsrt --enable-libssh --enable-libtheora --enable-libtwolame --enable-libvidstab --enable-libvorbis --enable-libvpx --enable-libwebp --enable-libx265 --enable-libxml2 --enable-libxvid --enable-libzimg --enable-libzmq --enable-libzvbi --enable-lv2 --enable-omx --enable-openal --enable-opencl --enable-opengl --enable-sdl2 --enable-pocketsphinx --enable-librsvg --enable-libmfx --enable-libdc1394 --enable-libdrm --enable-libiec61883 --enable-chromaprint --enable-frei0r --enable-libx264 --enable-shared\n",
      "  WARNING: library configuration mismatch\n",
      "  avcodec     configuration: --prefix=/usr --extra-version=0ubuntu0.22.04.1 --toolchain=hardened --libdir=/usr/lib/x86_64-linux-gnu --incdir=/usr/include/x86_64-linux-gnu --arch=amd64 --enable-gpl --disable-stripping --enable-gnutls --enable-ladspa --enable-libaom --enable-libass --enable-libbluray --enable-libbs2b --enable-libcaca --enable-libcdio --enable-libcodec2 --enable-libdav1d --enable-libflite --enable-libfontconfig --enable-libfreetype --enable-libfribidi --enable-libgme --enable-libgsm --enable-libjack --enable-libmp3lame --enable-libmysofa --enable-libopenjpeg --enable-libopenmpt --enable-libopus --enable-libpulse --enable-librabbitmq --enable-librubberband --enable-libshine --enable-libsnappy --enable-libsoxr --enable-libspeex --enable-libsrt --enable-libssh --enable-libtheora --enable-libtwolame --enable-libvidstab --enable-libvorbis --enable-libvpx --enable-libwebp --enable-libx265 --enable-libxml2 --enable-libxvid --enable-libzimg --enable-libzmq --enable-libzvbi --enable-lv2 --enable-omx --enable-openal --enable-opencl --enable-opengl --enable-sdl2 --enable-pocketsphinx --enable-librsvg --enable-libmfx --enable-libdc1394 --enable-libdrm --enable-libiec61883 --enable-chromaprint --enable-frei0r --enable-libx264 --enable-shared --enable-version3 --disable-doc --disable-programs --enable-libaribb24 --enable-libopencore_amrnb --enable-libopencore_amrwb --enable-libtesseract --enable-libvo_amrwbenc --enable-libsmbclient\n",
      "  libavutil      56. 70.100 / 56. 70.100\n",
      "  libavcodec     58.134.100 / 58.134.100\n",
      "  libavformat    58. 76.100 / 58. 76.100\n",
      "  libavdevice    58. 13.100 / 58. 13.100\n",
      "  libavfilter     7.110.100 /  7.110.100\n",
      "  libswscale      5.  9.100 /  5.  9.100\n",
      "  libswresample   3.  9.100 /  3.  9.100\n",
      "  libpostproc    55.  9.100 / 55.  9.100\n",
      "Input #0, mov,mp4,m4a,3gp,3g2,mj2, from '../data/input1.mp4':\n",
      "  Metadata:\n",
      "    major_brand     : mp42\n",
      "    minor_version   : 1\n",
      "    compatible_brands: isommp41mp42\n",
      "    creation_time   : 2025-04-08T22:14:30.000000Z\n",
      "  Duration: 00:10:05.14, start: 0.000000, bitrate: 4053 kb/s\n",
      "  Stream #0:0(und): Audio: aac (LC) (mp4a / 0x6134706D), 48000 Hz, stereo, fltp, 250 kb/s (default)\n",
      "    Metadata:\n",
      "      creation_time   : 2025-04-08T22:14:30.000000Z\n",
      "      handler_name    : Core Media Audio\n",
      "      vendor_id       : [0][0][0][0]\n",
      "  Stream #0:1(und): Video: h264 (High) (avc1 / 0x31637661), yuv420p, 1920x1080 [SAR 1:1 DAR 16:9], 3798 kb/s, 25 fps, 25 tbr, 25k tbn, 50 tbc (default)\n",
      "    Metadata:\n",
      "      creation_time   : 2025-04-08T22:14:30.000000Z\n",
      "      handler_name    : Core Media Video\n",
      "      vendor_id       : [0][0][0][0]\n",
      "Output #0, mp4, to 'video_chunks/chunk_009.mp4':\n",
      "  Metadata:\n",
      "    major_brand     : mp42\n",
      "    minor_version   : 1\n",
      "    compatible_brands: isommp41mp42\n",
      "    encoder         : Lavf58.76.100\n",
      "  Stream #0:0(und): Video: h264 (High) (avc1 / 0x31637661), yuv420p, 1920x1080 [SAR 1:1 DAR 16:9], q=2-31, 3798 kb/s, 25 fps, 25 tbr, 25k tbn, 25k tbc (default)\n",
      "    Metadata:\n",
      "      creation_time   : 2025-04-08T22:14:30.000000Z\n",
      "      handler_name    : Core Media Video\n",
      "      vendor_id       : [0][0][0][0]\n",
      "  Stream #0:1(und): Audio: aac (LC) (mp4a / 0x6134706D), 48000 Hz, stereo, fltp, 250 kb/s (default)\n",
      "    Metadata:\n",
      "      creation_time   : 2025-04-08T22:14:30.000000Z\n",
      "      handler_name    : Core Media Audio\n",
      "      vendor_id       : [0][0][0][0]\n",
      "Stream mapping:\n",
      "  Stream #0:1 -> #0:0 (copy)\n",
      "  Stream #0:0 -> #0:1 (copy)\n",
      "Press [q] to stop, [?] for help\n",
      "frame= 1152 fps=0.0 q=-1.0 Lsize=   23053kB time=00:00:47.52 bitrate=3973.9kbits/s speed= 291x    \n",
      "video:21560kB audio:1457kB subtitle:0kB other streams:0kB global headers:0kB muxing overhead: 0.154924%\n",
      "/tmp/tmpecyq3zjl/main.c:5:10: fatal error: Python.h: No such file or directory\n",
      "    5 | #include <Python.h>\n",
      "      |          ^~~~~~~~~~\n",
      "compilation terminated.\n",
      "/home/arnautov/projects/mgu_hack/venv/lib/python3.11/site-packages/whisper/timing.py:42: UserWarning: Failed to launch Triton kernels, likely due to missing CUDA toolkit; falling back to a slower median kernel implementation...\n",
      "  warnings.warn(\n",
      "/tmp/tmpglobdae6/main.c:5:10: fatal error: Python.h: No such file or directory\n",
      "    5 | #include <Python.h>\n",
      "      |          ^~~~~~~~~~\n",
      "compilation terminated.\n",
      "/home/arnautov/projects/mgu_hack/venv/lib/python3.11/site-packages/whisper/timing.py:146: UserWarning: Failed to launch Triton kernels, likely due to missing CUDA toolkit; falling back to a slower DTW implementation...\n",
      "  warnings.warn(\n",
      "/home/arnautov/projects/mgu_hack/venv/lib/python3.11/site-packages/numba/np/ufunc/parallel.py:371: NumbaWarning: The TBB threading layer requires TBB version 2021 update 6 or later i.e., TBB_INTERFACE_VERSION >= 12060. Found TBB_INTERFACE_VERSION = 12050. The TBB threading layer is disabled.\n",
      "  warnings.warn(problem)\n",
      "/tmp/tmp4n83cu1y/main.c:5:10: fatal error: Python.h: No such file or directory\n",
      "    5 | #include <Python.h>\n",
      "      |          ^~~~~~~~~~\n",
      "compilation terminated.\n",
      "/home/arnautov/projects/mgu_hack/venv/lib/python3.11/site-packages/whisper/timing.py:42: UserWarning: Failed to launch Triton kernels, likely due to missing CUDA toolkit; falling back to a slower median kernel implementation...\n",
      "  warnings.warn(\n",
      "/tmp/tmpcrtkl41x/main.c:5:10: fatal error: Python.h: No such file or directory\n",
      "    5 | #include <Python.h>\n",
      "      |          ^~~~~~~~~~\n",
      "compilation terminated.\n",
      "/home/arnautov/projects/mgu_hack/venv/lib/python3.11/site-packages/whisper/timing.py:146: UserWarning: Failed to launch Triton kernels, likely due to missing CUDA toolkit; falling back to a slower DTW implementation...\n",
      "  warnings.warn(\n",
      "/tmp/tmpq59_z48q/main.c:5:10: fatal error: Python.h: No such file or directory\n",
      "    5 | #include <Python.h>\n",
      "      |          ^~~~~~~~~~\n",
      "compilation terminated.\n",
      "/home/arnautov/projects/mgu_hack/venv/lib/python3.11/site-packages/whisper/timing.py:42: UserWarning: Failed to launch Triton kernels, likely due to missing CUDA toolkit; falling back to a slower median kernel implementation...\n",
      "  warnings.warn(\n",
      "/tmp/tmp1a7bhohq/main.c:5:10: fatal error: Python.h: No such file or directory\n",
      "    5 | #include <Python.h>\n",
      "      |          ^~~~~~~~~~\n",
      "compilation terminated.\n",
      "/home/arnautov/projects/mgu_hack/venv/lib/python3.11/site-packages/whisper/timing.py:146: UserWarning: Failed to launch Triton kernels, likely due to missing CUDA toolkit; falling back to a slower DTW implementation...\n",
      "  warnings.warn(\n",
      "/tmp/tmpz7j46uz5/main.c:5:10: fatal error: Python.h: No such file or directory\n",
      "    5 | #include <Python.h>\n",
      "      |          ^~~~~~~~~~\n",
      "compilation terminated.\n",
      "/tmp/tmppzurfxkh/main.c:5:10: fatal error: Python.h: No such file or directory\n",
      "    5 | #include <Python.h>\n",
      "      |          ^~~~~~~~~~\n",
      "compilation terminated.\n",
      "/tmp/tmpqc4f3z6e/main.c:5:10: fatal error: Python.h: No such file or directory\n",
      "    5 | #include <Python.h>\n",
      "      |          ^~~~~~~~~~\n",
      "compilation terminated.\n",
      "/home/arnautov/projects/mgu_hack/venv/lib/python3.11/site-packages/whisper/timing.py:42: UserWarning: Failed to launch Triton kernels, likely due to missing CUDA toolkit; falling back to a slower median kernel implementation...\n",
      "  warnings.warn(\n",
      "/tmp/tmptiuhwzks/main.c:5:10: fatal error: Python.h: No such file or directory\n",
      "    5 | #include <Python.h>\n",
      "      |          ^~~~~~~~~~\n",
      "compilation terminated.\n",
      "/home/arnautov/projects/mgu_hack/venv/lib/python3.11/site-packages/whisper/timing.py:146: UserWarning: Failed to launch Triton kernels, likely due to missing CUDA toolkit; falling back to a slower DTW implementation...\n",
      "  warnings.warn(\n",
      "/tmp/tmpvodmdxm3/main.c:5:10: fatal error: Python.h: No such file or directory\n",
      "    5 | #include <Python.h>\n",
      "      |          ^~~~~~~~~~\n",
      "compilation terminated.\n",
      "/tmp/tmpa4kg5td7/main.c:5:10: fatal error: Python.h: No such file or directory\n",
      "    5 | #include <Python.h>\n",
      "      |          ^~~~~~~~~~\n",
      "compilation terminated.\n",
      "/tmp/tmp60m9ary_/main.c:5:10: fatal error: Python.h: No such file or directory\n",
      "    5 | #include <Python.h>\n",
      "      |          ^~~~~~~~~~\n",
      "compilation terminated.\n",
      "/home/arnautov/projects/mgu_hack/venv/lib/python3.11/site-packages/whisper/timing.py:42: UserWarning: Failed to launch Triton kernels, likely due to missing CUDA toolkit; falling back to a slower median kernel implementation...\n",
      "  warnings.warn(\n",
      "/tmp/tmpcjcscykb/main.c:5:10: fatal error: Python.h: No such file or directory\n",
      "    5 | #include <Python.h>\n",
      "      |          ^~~~~~~~~~\n",
      "compilation terminated.\n",
      "/home/arnautov/projects/mgu_hack/venv/lib/python3.11/site-packages/whisper/timing.py:146: UserWarning: Failed to launch Triton kernels, likely due to missing CUDA toolkit; falling back to a slower DTW implementation...\n",
      "  warnings.warn(\n",
      "/tmp/tmp2pgacfjf/main.c:5:10: fatal error: Python.h: No such file or directory\n",
      "    5 | #include <Python.h>\n",
      "      |          ^~~~~~~~~~\n",
      "compilation terminated.\n",
      "/tmp/tmpdbaaaok7/main.c:5:10: fatal error: Python.h: No such file or directory\n",
      "    5 | #include <Python.h>\n",
      "      |          ^~~~~~~~~~\n",
      "compilation terminated.\n",
      "/tmp/tmpdejlwvn4/main.c:5:10: fatal error: Python.h: No such file or directory\n",
      "    5 | #include <Python.h>\n",
      "      |          ^~~~~~~~~~\n",
      "compilation terminated.\n",
      "/tmp/tmpts0ci1dl/main.c:5:10: fatal error: Python.h: No such file or directory\n",
      "    5 | #include <Python.h>\n",
      "      |          ^~~~~~~~~~\n",
      "compilation terminated.\n",
      "/tmp/tmpmhf9l5ss/main.c:5:10: fatal error: Python.h: No such file or directory\n",
      "    5 | #include <Python.h>\n",
      "      |          ^~~~~~~~~~\n",
      "compilation terminated.\n",
      "/home/arnautov/projects/mgu_hack/venv/lib/python3.11/site-packages/whisper/timing.py:42: UserWarning: Failed to launch Triton kernels, likely due to missing CUDA toolkit; falling back to a slower median kernel implementation...\n",
      "  warnings.warn(\n",
      "/tmp/tmp5nqnm9he/main.c:5:10: fatal error: Python.h: No such file or directory\n",
      "    5 | #include <Python.h>\n",
      "      |          ^~~~~~~~~~\n",
      "compilation terminated.\n",
      "/home/arnautov/projects/mgu_hack/venv/lib/python3.11/site-packages/whisper/timing.py:146: UserWarning: Failed to launch Triton kernels, likely due to missing CUDA toolkit; falling back to a slower DTW implementation...\n",
      "  warnings.warn(\n",
      "/tmp/tmpss0s9ian/main.c:5:10: fatal error: Python.h: No such file or directory\n",
      "    5 | #include <Python.h>\n",
      "      |          ^~~~~~~~~~\n",
      "compilation terminated.\n",
      "/tmp/tmp0uamydr1/main.c:5:10: fatal error: Python.h: No such file or directory\n",
      "    5 | #include <Python.h>\n",
      "      |          ^~~~~~~~~~\n",
      "compilation terminated.\n",
      "/tmp/tmp14gz6q8a/main.c:5:10: fatal error: Python.h: No such file or directory\n",
      "    5 | #include <Python.h>\n",
      "      |          ^~~~~~~~~~\n",
      "compilation terminated.\n",
      "/tmp/tmp1r00ddpw/main.c:5:10: fatal error: Python.h: No such file or directory\n",
      "    5 | #include <Python.h>\n",
      "      |          ^~~~~~~~~~\n",
      "compilation terminated.\n",
      "/tmp/tmpcz2isqy7/main.c:5:10: fatal error: Python.h: No such file or directory\n",
      "    5 | #include <Python.h>\n",
      "      |          ^~~~~~~~~~\n",
      "compilation terminated.\n",
      "/home/arnautov/projects/mgu_hack/venv/lib/python3.11/site-packages/whisper/timing.py:42: UserWarning: Failed to launch Triton kernels, likely due to missing CUDA toolkit; falling back to a slower median kernel implementation...\n",
      "  warnings.warn(\n",
      "/tmp/tmp4qhg_19m/main.c:5:10: fatal error: Python.h: No such file or directory\n",
      "    5 | #include <Python.h>\n",
      "      |          ^~~~~~~~~~\n",
      "compilation terminated.\n",
      "/home/arnautov/projects/mgu_hack/venv/lib/python3.11/site-packages/whisper/timing.py:146: UserWarning: Failed to launch Triton kernels, likely due to missing CUDA toolkit; falling back to a slower DTW implementation...\n",
      "  warnings.warn(\n",
      "/tmp/tmph27dmyjy/main.c:5:10: fatal error: Python.h: No such file or directory\n",
      "    5 | #include <Python.h>\n",
      "      |          ^~~~~~~~~~\n",
      "compilation terminated.\n",
      "/tmp/tmplzpvd3e5/main.c:5:10: fatal error: Python.h: No such file or directory\n",
      "    5 | #include <Python.h>\n",
      "      |          ^~~~~~~~~~\n",
      "compilation terminated.\n",
      "/tmp/tmpbimynj0w/main.c:5:10: fatal error: Python.h: No such file or directory\n",
      "    5 | #include <Python.h>\n",
      "      |          ^~~~~~~~~~\n",
      "compilation terminated.\n",
      "/tmp/tmpe98vkv8q/main.c:5:10: fatal error: Python.h: No such file or directory\n",
      "    5 | #include <Python.h>\n",
      "      |          ^~~~~~~~~~\n",
      "compilation terminated.\n",
      "/tmp/tmpkxb_16b_/main.c:5:10: fatal error: Python.h: No such file or directory\n",
      "    5 | #include <Python.h>\n",
      "      |          ^~~~~~~~~~\n",
      "compilation terminated.\n",
      "/home/arnautov/projects/mgu_hack/venv/lib/python3.11/site-packages/whisper/timing.py:42: UserWarning: Failed to launch Triton kernels, likely due to missing CUDA toolkit; falling back to a slower median kernel implementation...\n",
      "  warnings.warn(\n",
      "/tmp/tmp1psta105/main.c:5:10: fatal error: Python.h: No such file or directory\n",
      "    5 | #include <Python.h>\n",
      "      |          ^~~~~~~~~~\n",
      "compilation terminated.\n",
      "/home/arnautov/projects/mgu_hack/venv/lib/python3.11/site-packages/whisper/timing.py:146: UserWarning: Failed to launch Triton kernels, likely due to missing CUDA toolkit; falling back to a slower DTW implementation...\n",
      "  warnings.warn(\n",
      "/tmp/tmppcev6f_o/main.c:5:10: fatal error: Python.h: No such file or directory\n",
      "    5 | #include <Python.h>\n",
      "      |          ^~~~~~~~~~\n",
      "compilation terminated.\n",
      "/tmp/tmpwkjbsdz2/main.c:5:10: fatal error: Python.h: No such file or directory\n",
      "    5 | #include <Python.h>\n",
      "      |          ^~~~~~~~~~\n",
      "compilation terminated.\n",
      "/tmp/tmp9fmu5cyh/main.c:5:10: fatal error: Python.h: No such file or directory\n",
      "    5 | #include <Python.h>\n",
      "      |          ^~~~~~~~~~\n",
      "compilation terminated.\n",
      "/home/arnautov/projects/mgu_hack/venv/lib/python3.11/site-packages/whisper/timing.py:42: UserWarning: Failed to launch Triton kernels, likely due to missing CUDA toolkit; falling back to a slower median kernel implementation...\n",
      "  warnings.warn(\n",
      "/tmp/tmpdkgg81xt/main.c:5:10: fatal error: Python.h: No such file or directory\n",
      "    5 | #include <Python.h>\n",
      "      |          ^~~~~~~~~~\n",
      "compilation terminated.\n",
      "/home/arnautov/projects/mgu_hack/venv/lib/python3.11/site-packages/whisper/timing.py:146: UserWarning: Failed to launch Triton kernels, likely due to missing CUDA toolkit; falling back to a slower DTW implementation...\n",
      "  warnings.warn(\n",
      "/tmp/tmpm0cjtccz/main.c:5:10: fatal error: Python.h: No such file or directory\n",
      "    5 | #include <Python.h>\n",
      "      |          ^~~~~~~~~~\n",
      "compilation terminated.\n",
      "/tmp/tmpavegr51x/main.c:5:10: fatal error: Python.h: No such file or directory\n",
      "    5 | #include <Python.h>\n",
      "      |          ^~~~~~~~~~\n",
      "compilation terminated.\n",
      "/tmp/tmpehtbx_vr/main.c:5:10: fatal error: Python.h: No such file or directory\n",
      "    5 | #include <Python.h>\n",
      "      |          ^~~~~~~~~~\n",
      "compilation terminated.\n",
      "/tmp/tmpezrfkj2h/main.c:5:10: fatal error: Python.h: No such file or directory\n",
      "    5 | #include <Python.h>\n",
      "      |          ^~~~~~~~~~\n",
      "compilation terminated.\n",
      "/tmp/tmpm_6hhezl/main.c:5:10: fatal error: Python.h: No such file or directory\n",
      "    5 | #include <Python.h>\n",
      "      |          ^~~~~~~~~~\n",
      "compilation terminated.\n",
      "/home/arnautov/projects/mgu_hack/venv/lib/python3.11/site-packages/whisper/timing.py:42: UserWarning: Failed to launch Triton kernels, likely due to missing CUDA toolkit; falling back to a slower median kernel implementation...\n",
      "  warnings.warn(\n",
      "/tmp/tmpgyinix0a/main.c:5:10: fatal error: Python.h: No such file or directory\n",
      "    5 | #include <Python.h>\n",
      "      |          ^~~~~~~~~~\n",
      "compilation terminated.\n",
      "/home/arnautov/projects/mgu_hack/venv/lib/python3.11/site-packages/whisper/timing.py:146: UserWarning: Failed to launch Triton kernels, likely due to missing CUDA toolkit; falling back to a slower DTW implementation...\n",
      "  warnings.warn(\n",
      "/tmp/tmph_5ilort/main.c:5:10: fatal error: Python.h: No such file or directory\n",
      "    5 | #include <Python.h>\n",
      "      |          ^~~~~~~~~~\n",
      "compilation terminated.\n",
      "/tmp/tmpsivf5ard/main.c:5:10: fatal error: Python.h: No such file or directory\n",
      "    5 | #include <Python.h>\n",
      "      |          ^~~~~~~~~~\n",
      "compilation terminated.\n",
      "/tmp/tmp_y892mso/main.c:5:10: fatal error: Python.h: No such file or directory\n",
      "    5 | #include <Python.h>\n",
      "      |          ^~~~~~~~~~\n",
      "compilation terminated.\n",
      "/home/arnautov/projects/mgu_hack/venv/lib/python3.11/site-packages/whisper/timing.py:42: UserWarning: Failed to launch Triton kernels, likely due to missing CUDA toolkit; falling back to a slower median kernel implementation...\n",
      "  warnings.warn(\n",
      "/tmp/tmp0dc47q7t/main.c:5:10: fatal error: Python.h: No such file or directory\n",
      "    5 | #include <Python.h>\n",
      "      |          ^~~~~~~~~~\n",
      "compilation terminated.\n",
      "/home/arnautov/projects/mgu_hack/venv/lib/python3.11/site-packages/whisper/timing.py:146: UserWarning: Failed to launch Triton kernels, likely due to missing CUDA toolkit; falling back to a slower DTW implementation...\n",
      "  warnings.warn(\n",
      "/tmp/tmpw16gado2/main.c:5:10: fatal error: Python.h: No such file or directory\n",
      "    5 | #include <Python.h>\n",
      "      |          ^~~~~~~~~~\n",
      "compilation terminated.\n",
      "/tmp/tmpfk5dh0ic/main.c:5:10: fatal error: Python.h: No such file or directory\n",
      "    5 | #include <Python.h>\n",
      "      |          ^~~~~~~~~~\n",
      "compilation terminated.\n"
     ]
    },
    {
     "name": "stdout",
     "output_type": "stream",
     "text": [
      "\n",
      "Готово! Сохранено 10 фрагментов в video_chunks\n"
     ]
    },
    {
     "name": "stderr",
     "output_type": "stream",
     "text": [
      "/tmp/tmpn_g_0msa/main.c:5:10: fatal error: Python.h: No such file or directory\n",
      "    5 | #include <Python.h>\n",
      "      |          ^~~~~~~~~~\n",
      "compilation terminated.\n",
      "/tmp/tmp12ueg9i9/main.c:5:10: fatal error: Python.h: No such file or directory\n",
      "    5 | #include <Python.h>\n",
      "      |          ^~~~~~~~~~\n",
      "compilation terminated.\n"
     ]
    }
   ],
   "source": [
    "import os\n",
    "import whisper\n",
    "import torch\n",
    "from pydub import AudioSegment\n",
    "from pydub.silence import split_on_silence\n",
    "from tqdm import tqdm\n",
    "import ffmpeg\n",
    "\n",
    "# Конфигурация\n",
    "CONFIG = {\n",
    "    \"model_size\": \"small\",          # Выбор модели Whisper\n",
    "    \"min_chunk_duration\": 30,        # Минимальная длина фрагмента (сек)\n",
    "    \"max_chunk_duration\": 60,        # Максимальная длина фрагмента (сек)\n",
    "    \"silence_thresh\": -40,           # Порог тишины в dB\n",
    "    \"min_silence_len\": 800,          # Минимальная пауза (мс)\n",
    "    \"keep_silence\": 300,             # Оставлять тишины по краям (мс)\n",
    "    \"output_folder\": \"video_chunks\", # Папка для результатов\n",
    "    \"language\": \"ru\"                 # Язык распознавания\n",
    "}\n",
    "\n",
    "class VideoProcessor:\n",
    "    def __init__(self, config):\n",
    "        self.config = config\n",
    "        self.model = self._load_model()\n",
    "        os.makedirs(config[\"output_folder\"], exist_ok=True)\n",
    "\n",
    "    def _load_model(self):\n",
    "        device = \"cuda\" if torch.cuda.is_available() else \"cpu\"\n",
    "        print(f\"Загружаем модель Whisper ({self.config['model_size']}) на {device}...\")\n",
    "        return whisper.load_model(self.config[\"model_size\"], device=device)\n",
    "\n",
    "    def _extract_audio(self, video_path):\n",
    "        audio_path = os.path.join(self.config[\"output_folder\"], \"temp_audio.wav\")\n",
    "        subprocess.run([\n",
    "            \"ffmpeg\",\n",
    "            \"-i\", video_path,\n",
    "            \"-ac\", \"1\",\n",
    "            \"-ar\", \"16000\",\n",
    "            \"-y\",\n",
    "            audio_path\n",
    "        ], check=True)\n",
    "        return audio_path\n",
    "\n",
    "    def _process_audio(self, audio_path):\n",
    "        \"\"\"Обрабатывает аудио и возвращает фрагменты\"\"\"\n",
    "        audio = AudioSegment.from_file(audio_path)\n",
    "        audio = audio.normalize()\n",
    "\n",
    "        print(\"Разделение аудио на фрагменты...\")\n",
    "        chunks = split_on_silence(\n",
    "            audio,\n",
    "            min_silence_len=self.config[\"min_silence_len\"],\n",
    "            silence_thresh=self.config[\"silence_thresh\"],\n",
    "            keep_silence=self.config[\"keep_silence\"]\n",
    "        )\n",
    "\n",
    "        # Объединяем короткие фрагменты\n",
    "        combined = []\n",
    "        current = chunks[0]\n",
    "        \n",
    "        for chunk in tqdm(chunks[1:], desc=\"Объединение фрагментов\"):\n",
    "            duration = (len(current) + len(chunk)) / 1000\n",
    "            if duration < self.config[\"max_chunk_duration\"]:\n",
    "                current += chunk\n",
    "            else:\n",
    "                if len(current) / 1000 >= self.config[\"min_chunk_duration\"]:\n",
    "                    combined.append(current)\n",
    "                current = chunk\n",
    "\n",
    "        if len(current) / 1000 >= self.config[\"min_chunk_duration\"]:\n",
    "            combined.append(current)\n",
    "\n",
    "        return combined\n",
    "\n",
    "    def _split_video(self, video_path, chunks):\n",
    "        for i, chunk in enumerate(chunks):\n",
    "            start = len(sum(chunks[:i], AudioSegment.empty())) / 1000\n",
    "            end = start + len(chunk) / 1000\n",
    "            output_path = os.path.join(self.config[\"output_folder\"], f\"chunk_{i:03d}.mp4\")\n",
    "            \n",
    "            subprocess.run([\n",
    "                \"ffmpeg\",\n",
    "                \"-i\", video_path,\n",
    "                \"-ss\", str(start),\n",
    "                \"-to\", str(end),\n",
    "                \"-c\", \"copy\",\n",
    "                \"-y\",\n",
    "                output_path\n",
    "            ], check=True)\n",
    "\n",
    "    def process(self, video_path):\n",
    "        \"\"\"Основной метод обработки\"\"\"\n",
    "        try:\n",
    "            # 1. Извлекаем аудио\n",
    "            audio_path = self._extract_audio(video_path)\n",
    "            \n",
    "            # 2. Получаем фрагменты\n",
    "            chunks = self._process_audio(audio_path)\n",
    "            \n",
    "            # 3. Нарезаем видео\n",
    "            self._split_video(video_path, chunks)\n",
    "            \n",
    "            # 4. Транскрибация (опционально)\n",
    "            if self.model:\n",
    "                for i, chunk in enumerate(chunks):\n",
    "                    chunk.export(f\"temp.wav\", format=\"wav\")\n",
    "                    result = self.model.transcribe(\n",
    "                        \"temp.wav\",\n",
    "                        language=self.config[\"language\"],\n",
    "                        word_timestamps=True\n",
    "                    )\n",
    "                    with open(os.path.join(self.config[\"output_folder\"], f\"chunk_{i:03d}.txt\"), \"w\") as f:\n",
    "                        f.write(result[\"text\"])\n",
    "                    os.remove(\"temp.wav\")\n",
    "            \n",
    "            print(f\"\\nГотово! Сохранено {len(chunks)} фрагментов в {self.config['output_folder']}\")\n",
    "            \n",
    "        finally:\n",
    "            # Очистка временных файлов\n",
    "            if os.path.exists(audio_path):\n",
    "                os.remove(audio_path)\n",
    "\n",
    "if __name__ == \"__main__\":\n",
    "    processor = VideoProcessor(CONFIG)\n",
    "    processor.process(\"../data/input1.mp4\")  # Укажите ваш файл"
   ]
  },
  {
   "cell_type": "code",
   "execution_count": null,
   "id": "d967a5cb",
   "metadata": {},
   "outputs": [],
   "source": []
  }
 ],
 "metadata": {
  "kernelspec": {
   "display_name": ".venv",
   "language": "python",
   "name": "python3"
  },
  "language_info": {
   "codemirror_mode": {
    "name": "ipython",
    "version": 3
   },
   "file_extension": ".py",
   "mimetype": "text/x-python",
   "name": "python",
   "nbconvert_exporter": "python",
   "pygments_lexer": "ipython3",
   "version": "3.11.10"
  }
 },
 "nbformat": 4,
 "nbformat_minor": 5
}
